<svg xmlns="http://www.w3.org/2000/svg" xmlns:xlink="http://www.w3.org/1999/xlink" version="1.1" width="624pt" height="1117.09pt" viewBox="0 0 624 1117.09">
<defs>
<clipPath id="clip_1">
<path transform="matrix(1,0,0,-1,0,1117.09)" d="M0 1117.091H624V0H0Z"/>
</clipPath>
</defs>
<g id="layer_1" data-name="Layer">
<g clip-path="url(#clip_1)">
<path transform="matrix(1,0,0,-1,293.5546,808.1816)" d="M0 0C-2.564-9.962-.99-19.728 .089-29.455 1.5-42.183 3.261-54.871 4.743-67.591 4.999-69.788 6.943-71.593 5.978-74.142 7.965-73.44 9.838-72.833 11.667-72.116 13.422-71.428 14.361-71.271 15.636-73.467 17.663-76.955 20.266-80.174 22.679-83.453 30.255-93.746 35.651-105.074 39.614-117.134 43.192-128.021 44.102-139.352 44.689-150.69 45.467-165.71 43.18-180.495 39.496-194.93 36.678-205.974 32.72-216.752 28.279-227.328 25.07-234.97 21.48-242.348 17.412-249.565 15.5-252.957 12.689-253.752 9.538-254.258 .604-255.694-8.407-256.696-17.297-258.357-24.836-259.766-32.453-260.159-40.04-260.816-48.269-261.528-56.544-261.44-64.823-261.156-77.611-260.717-89.608-257.332-101.556-252.998-121.093-245.91-136.797-233.858-149.903-217.991-153.944-213.098-157.267-207.693-161.428-202.882-165.977-197.621-168.874-191.305-171.596-184.938-172.178-183.577-171.817-182.594-171.138-181.409-168.073-176.059-162.86-172.999-158.117-169.615-153.965-166.653-149.802-163.456-144.68-162.021-142.763-161.483-144.376-160.367-144.814-159.82-148.111-155.701-151.44-151.578-153.57-146.723-160.265-131.461-166.987-116.179-169.59-99.541-172.134-83.275-172.058-67.074-168.846-50.818-166.123-37.038-163.313-23.306-158.235-10.188-155.463-3.027-152.003 3.868-148.856 10.885-148.175 12.403-147.018 12.123-145.915 11.576-143.312 10.287-140.691 9.02-138.183 7.562-133.168 4.647-127.931 2.149-122.972-.881-116.623-4.762-111.334-9.87-105.988-14.909-99.907-20.643-93.515-26.028-87.581-31.936-78.467-41.009-70.309-50.882-62.871-61.295-55.54-71.558-48.305-81.935-42.275-93.058-39.57-98.049-36.764-103.011-35.156-108.892-33.88-107.428-32.758-106.168-31.665-104.882-22.643-94.273-12.14-85.387-.388-77.946 3.32-75.599 3.184-75.469 2.044-71.472-1.196-60.11-5.599-49.194-10.746-38.604-13.715-32.496-17.218-26.614-20.889-20.892-23.205-17.283-24.958-13.396-27.224-9.776-33.846 .806-41.518 10.536-49.84 19.849-58.434 29.465-66.649 39.438-75.554 48.765-87.913 61.709-99.649 75.233-112.19 87.997-118.163 94.076-123.987 100.398-130.984 105.331-135.142 108.262-139.215 111.257-144.345 112.859-155.018 116.193-165.765 119.622-174.66 126.917-183.611 134.257-192.108 142.101-198.852 151.538-205.812 161.277-210.641 172.042-212.25 184.059-212.476 185.753-212.104 187.45-212.622 189.182-213.026 190.53-211.662 191.296-210.57 191.606-203.612 193.581-196.686 195.911-189.27 194.708-187.688 194.451-186.605 194.362-187.032 196.586-187.365 198.317-186.55 199.979-186.114 201.64-180.983 221.163-172.761 239.148-159.663 254.705-158.139 256.516-156.611 258.32-154.762 259.808-153.561 260.774-152.363 260.958-151.149 259.7-146.029 254.393-141.575 248.607-138.291 241.974-132.554 230.386-127.616 218.542-125.576 205.632-124.842 200.986-123.274 196.473-123.454 191.356-118.914 193.18-114.494 194.517-109.785 194.97-107.366 195.203-106.855 194.157-106.707 192.373-106.062 184.588-105.516 176.814-107.098 169.047-107.912 165.053-108.483 161.003-108.998 156.957-111.264 139.166-119.289 124.618-133.379 113.479-134.461 112.623-135.264 112.169-133.555 111.079-124.36 105.22-116.922 97.387-109.56 89.485-99.215 78.383-89.123 67.037-78.673 56.046-71.548 48.551-63.898 41.516-57.132 33.683-45.444 20.151-33.26 6.98-24.151-8.572-19.243-16.954-14.12-25.222-9.557-33.789-6.538-39.458-4.347-45.568-1.774-51.475-1.392-52.355-.952-53.209 .014-53.913-.575-49.282-1.177-44.654-1.748-40.021-2.479-34.088-3.063-28.134-3.93-22.221-5.319-12.74-5.264-3.076-7.562 6.29-7.747 7.046-7.981 7.623-8.616 8.083-15.537 13.096-20.195 19.757-24.209 27.306-29.685 37.603-34.864 47.958-38.372 59.087-42.072 70.824-43.374 82.777-42.373 95.125-41.892 101.051-42.347 107.091-41.778 113.068-39.949 132.254-34.33 150.333-26.025 167.657-23.875 172.144-21.935 176.723-19.396 181.022-17.754 183.803-15.459 185.987-13.322 188.328-12.404 189.334-11.276 189.274-10.363 188.596-7.753 186.66-4.553 186.147-1.722 184.779 .304 183.801 .838 184.011 .663 186.467-.115 197.357-1.803 208.12-3.29 218.922-5.93 238.096-8.344 257.3-12.036 276.31-13.092 281.748-14.303 287.155-15.406 292.584-15.719 294.121-16.149 294.506-17.932 293.979-26.504 291.445-34.83 287.927-44.018 287.815-55.39 287.675-65.817 290.873-75.83 295.951-88.419 302.336-99.278 310.76-107.458 322.393-108.392 323.721-109.241 325.135-109.936 326.601-112.475 331.956-112.246 333.237-107.969 337.368-103.765 341.429-99.012 344.771-93.883 347.542-91.969 348.576-91.184 349.437-92.015 351.879-96.756 365.815-97.322 380.245-93.911 394.331-91.442 404.526-87.635 414.598-80.941 423.167-79.511 424.999-78.055 423.933-77.135 423.457-66.863 418.15-55.534 415.026-46.029 408.114-39.437 403.32-32.476 399.029-26.444 392.658-26.058 395.493-27.037 397.575-27.491 399.66-31.818 419.521-36.599 439.28-41.979 458.877-46.498 475.337-52.209 491.439-57.785 507.573-61.226 517.526-64.277 527.615-67.763 537.551-71.459 548.082-75.098 558.661-79.47 568.917-82.088 575.06-85.575 580.858-87.963 587.143-88.734 589.173-89.576 591.213-89.994 593.326-90.335 595.05-90.975 595.269-92.55 594.958-100.753 593.333-108.98 591.915-117.414 592.464-141.007 593.998-162.605 600.367-179.611 617.955-182.765 621.217-182.415 623.987-178.434 626.747-172.908 630.578-167.155 634.028-160.932 636.62-159.738 637.117-159.147 637.677-159.53 639.043-161.631 646.538-160.172 653.826-157.895 660.958-154.387 671.946-149.076 682.004-141.54 690.811-141.011 691.429-140.444 692.034-139.81 692.537-137.927 694.029-136.386 694.488-133.92 692.791-121.882 684.509-111.245 674.924-103.666 662.278-102.802 660.837-102.044 660.921-100.663 661.492-93.941 664.269-87.128 666.709-79.737 667.126-77.423 667.256-76.463 666.739-75.93 664.311-74.789 659.106-72.647 654.109-73.03 648.616-73.637 639.919-74.077 631.224-76.161 622.68-77.56 616.946-78.356 611.05-81.723 606.01-83.285 603.674-84.914 601.357-86.754 599.242-87.815 598.024-87.855 597.024-87.462 595.578-85.287 587.564-81.832 580.164-77.82 572.889-73.476 565.012-70.982 556.285-67.995 547.809-64.651 538.32-61.235 528.854-58.085 519.3-52.695 502.951-47.488 486.542-42.2 470.16-42.036 469.652-41.831 469.156-41.418 468.681-41.06 472.074-40.135 475.266-41.83 478.809-48.639 493.042-50.558 508.087-48.387 523.677-46.742 535.483-42.591 546.327-35.589 555.989-30.228 563.388-23.633 569.326-14.954 572.732-13.475 573.312-12.615 573.024-11.538 572.19-7.323 568.924-2.682 566.15 .474 561.678 1.345 560.443 2.058 561.488 2.779 561.827 15.574 567.847 28.49 573.565 42.093 577.557 44.266 578.195 46.508 578.602 48.716 579.122 51.11 579.686 52.413 578.565 52.764 576.313 54.171 567.285 54.284 558.265 53.021 549.179 51.981 541.701 50.097 534.418 48.312 527.128 46.601 520.144 43.216 513.768 39.527 507.598 39.154 506.975 38.79 506.34 38.348 505.767 36.651 503.563 37.636 502.474 39.747 501.228 45.23 497.993 48.91 493.089 51.57 487.382 52.065 486.319 51.707 485.523 50.761 484.814 43.836 479.622 36.473 475.344 28.34 472.173 14.149 466.639-.359 467.675-14.953 469.102-21.098 469.703-27.218 470.482-33.185 472.213-35.203 472.798-37.029 473.794-39.137 474.589-39.992 469.369-40.404 464.431-39.009 459.153-33.859 439.661-29.158 420.052-24.304 400.482-24.02 399.339-23.584 398.121-23.726 397.002-24.463 391.196-21.587 386.835-18.418 382.455-17.219 380.799-16.673 380.893-15.548 382.361-10.631 388.769-3.401 391.632 3.675 394.698 5.123 395.326 6.209 394.821 6.426 393.149 8.062 380.551 10.434 368.011 10.78 355.298 11.145 341.896 8.44 329.044 2.895 316.692-.701 308.679-5.512 301.696-11.524 295.442-12.239 294.698-12.283 294.062-12.033 293.278-10.051 287.051-8.952 280.623-7.822 274.213-7.483 272.292-6.978 272.441-5.652 273.268 1.609 277.802 8.038 283.437 14.607 288.846 22.597 295.425 30.364 302.287 37.655 309.669 45.005 317.11 51.936 324.919 58.697 332.892 63.572 338.64 68.538 344.313 73.545 349.947 74.902 351.474 75.256 352.833 74.362 354.769 72.352 359.123 73.028 363.385 74.422 367.931 79.22 383.582 91.749 390.433 105.481 396.029 108.11 397.101 108.766 396.376 108.208 393.58 108.032 392.699 107.809 391.759 107.94 390.896 108.928 384.383 106.667 378.34 105.287 372.179 104.462 368.496 102.432 365.373 99.735 362.045 101.822 362.056 103.531 362.206 104.995 361.163 106.598 360.02 106.962 358.943 105.373 357.457 101.436 353.775 96.419 352.271 91.436 351.203 86.447 350.134 81.264 349.218 76.106 350.575 74.959 350.877 74.715 350.067 74.235 349.453 56.351 326.553 37.025 305.014 14.312 286.749 7.75 281.472 1.466 275.785-5.894 271.56-6.773 271.056-7.249 270.599-7.027 269.446-3.869 253.054-2.541 236.397 .116 219.921 2.033 208.042 3.499 196.028 3.581 183.933 3.59 182.638 4.065 182.046 5.144 181.442 13.756 176.625 21.608 170.804 28.165 163.375 29.35 162.032 29.938 162.002 31.211 163.328 36.178 168.499 40.321 174.467 45.974 178.967 53.581 185.022 61.494 190.589 69.991 195.418 80.251 201.249 90.069 207.913 100.879 212.701 110.333 216.888 120.166 220.216 129.68 224.279 144.928 230.791 160.918 234.319 177.219 236.683 179.991 237.085 182.842 236.927 185.655 237.075 187.399 237.168 188.264 236.298 188.831 234.723 189.715 232.263 189.47 229.706 189.779 227.198 191.703 211.561 189.252 196.342 185.067 181.392 176.206 149.746 160.557 121.693 139.261 96.748 135.391 92.215 132.286 86.927 126.888 83.837 125.508 83.047 126.554 82.451 127.154 81.811 134.416 74.071 141.645 66.301 147.761 57.587 151.683 51.999 154.556 45.801 158.012 39.942 158.968 38.32 157.929 37.238 156.71 36.263 149.517 30.505 141.838 25.496 133.435 21.709 119.457 15.409 105.001 10.43 90.22 6.355 71.159 1.101 51.947-3.467 32.182-4.939 22.503-5.659 12.777-5.27 3.5-1.729 2.328-1.281 1.239-.618 0 0"/>
</g>
</g>
</svg>
