<svg xmlns="http://www.w3.org/2000/svg" xmlns:xlink="http://www.w3.org/1999/xlink" version="1.1" width="1117.09pt" height="660pt" viewBox="0 0 1117.09 660">
<defs>
<clipPath id="clip_1">
<path transform="matrix(1,0,0,-1,0,660)" d="M0 660H1117.091V0H0Z"/>
</clipPath>
</defs>
<g id="layer_1" data-name="Layer">
<g clip-path="url(#clip_1)">
<path transform="matrix(1,0,0,-1,241.5619,458.7745)" d="M0 0C-12.836 7.313-25.937 12.309-40.891 4.501-35.013-1.347-29.856-7.59-20.795-7.475-11.82-7.362-3.713-5.966-.254-1.569-4.923-1.569-9.448-1.806-13.937-1.503-18.486-1.197-23.012-.407-27.009 2.314-18.229-1.274-9.121-.664 0 0" fill="#406325"/>
<path transform="matrix(1,0,0,-1,118.8086,408.94233)" d="M0 0C-.583-.534-.117-.94 .031-1.437 2.286-9.004 6.206-15.882 9.026-23.215 9.342-24.036 9.999-24.393 10.758-24.798 13.551-26.29 17.511-30.248 18.162-32.004 15.467-29.693 12.903-27.212 9.657-25.44 10.893-28.623 11.331-31.917 12.083-35.136 13.386-40.72 13.535-41.845 12.925-44.25 11.134-35.133 9.209-25.634 4.659-16.515 3.151-20.182 2.352-23.661 1.674-27.222 1.009-30.711 1.239-34.227 .976-38.005 .228-36.256 .094-34.745 .098-33.188 .11-28.259 .912-23.446 2.721-18.889 3.878-15.976 3.791-13.403 2.162-10.782 .861-8.688 .214-6.32-.442-3.976-1.203-1.254-1.453-1.119-3.754-2.804-9.032-6.667-13.828-11.088-18.496-15.653-19.012-16.158-19.677-16.666-19.889-17.301-21.633-22.507-23.296-27.74-24.964-32.971-26.871-38.953-29.056-44.824-31.95-50.427-28.26-40.229-24.933-29.92-22.01-19.396-35.551-32.254-46.166-47.252-54.815-63.726-50.9-51.473-42.175-42.032-34.961-30.985-43.1-35.015-49.775-39.933-55.845-45.768-55.05-44.367-54.365-42.765-53.159-41.855-47.541-37.617-42.221-32.88-35.546-30.266-34.133-29.713-33.065-28.883-32.044-27.811-24.166-19.541-16.409-11.142-7.385-4.058-5.925-2.912-4.513-1.707-2.921-.4-7.279 .684-11.46 .763-15.57 1.352-16.877 1.539-18.154 1.204-19.27 .698-24.695-1.761-30.363-3.647-35.65-6.448-38.63-8.026-41.87-9.091-45.243-9.669-36.641-6.375-28.696-1.675-20.067 1.501-34.374 4.26-48.593 2.24-62.794 2.158-53.839 2.825-44.982 4.415-35.959 4.485-41.626 7.427-47.64 9.189-53.585 11.152-49.127 10.784-45.005 9.213-40.818 7.833-36.484 6.405-32.693 3.378-27.769 3.65-22.581 3.937-17.516 2.569-12.369 2.191-8.847 1.932-5.347 1.367-1.838 .939-1.711 1.145-1.584 1.351-1.456 1.557-4.128 4.352-6.553 7.445-9.515 9.888-21.092 19.433-35.022 21.614-49.341 21.262-60.833 20.979-71.388 16.799-81.274 10.966-82.268 10.379-81.967 9.998-81.707 9.337-76.822-3.112-68.26-12.036-56.006-17.385-52.117-19.083-52.092-19.025-54.603-22.112-54.66-22.183-54.714-22.256-54.768-22.329-63.098-33.551-67.492-46.105-67.307-60.124-67.23-65.922-66.798-71.71-65.503-77.406-64.776-80.599-64.454-83.852-65.427-87.83-60.029-83.66-54.552-80.851-49.175-77.905-35.811-70.582-23.486-61.881-12.578-51.204-10.995-49.655-10.517-47.139-6.645-49.515 .99-54.199 9.786-56.124 18.965-55.28 20.767-55.114 21.678-54.561 22.075-52.668 25.079-38.343 23.667-24.478 17.163-11.397 14.138-5.313 9.251-.808 2.051 .281 1.346 .388 .642 .588 0 0" fill="#406325"/>
<path transform="matrix(1,0,0,-1,231.9095,316.289)" d="M0 0C5.293 .78 11.985 3.786 15.686 6.747 24.155 13.521 28.716 22.82 32.549 32.606 32.874 33.437 32.931 34.253 31.959 34.659 28.309 36.186 24.943 38.325 20.856 38.89 17.801 39.312 14.893 38.5 11.909 38.598 10.661 38.639 10.244 38.787 10.587 40.336 12.138 47.332 11.18 54.107 8.747 60.838 6.052 68.29 .299 73.129-5.174 78.27-6.225 79.257-6.956 78.908-7.847 77.904-12.417 72.751-15.25 66.523-18.493 60.579-21.654 54.786-23.784 48.514-22.885 41.81-22.52 39.09-23.417 39.005-25.432 39.188-33.761 39.948-41.17 36.131-48.999 34.398-49.914 34.196-50.47 33.9-49.976 32.728-48.85 30.058-48.134 27.184-46.774 24.649-40.583 13.116-31.216 5.201-18.813 1.008-13.843-.672-8.696-1.041-2.842-.271-15.88 5.995-26.427 14.251-34.261 25.702-30.823 21.148-26.292 17.676-22.051 13.851-22.302 16.124-23.857 17.773-24.572 19.789-25.251 21.704-26.024 23.585-26.755 25.481-26.465 25.697-26.176 25.913-25.886 26.129-23.022 13.587-15.079 5.907-3.429 1.607-3.429 2.179-3.348 2.72-3.442 3.229-4.682 10.007-5.793 16.846-5.469 23.721-5.149 30.496-6.732 36.467-10.421 42.109-12.415 45.158-13.466 48.71-13.991 52.38-11.795 46.765-9.376 41.278-5.678 35.752-6.095 44.618-6.781 52.905-5.184 61.131-5.258 56.154-5.672 51.194-5.212 46.201-4.748 41.169-4.632 36.104-4.364 31.053-.22 37.975 1.756 45.633 3.41 53.359 3.274 45.919 1.285 38.876-2.035 32.539-4.277 28.259-4.603 24.221-4.32 19.797-4.199 17.899-4.047 15.995-3.748 14.118-3.058 9.774-2.869 5.334-1.318 .444 5.713 7.661 12.77 14.192 11.501 25.239 12.606 22.948 12.388 20.635 11.938 17.574 14.52 21.423 16.297 24.881 18.231 28.243 16.8 22.707 13.619 18.089 10.684 13.349 7.724 8.569 4.384 4.075 0 0" fill="#406325"/>
<path transform="matrix(1,0,0,-1,209.2616,350.7112)" d="M0 0C-4.187 5.179-9.62 7.688-15.78 9.329-20.281 10.528-20.247 10.656-20.556 6.033-20.569 5.852-20.574 5.67-20.598 5.49-21.566-1.725-19.773-8.51-16.125-14.506-11.235-22.541-6.113-23.582 1.197-22.059-5.376-15.389-10.462-7.804-14.176 .7-9.039-7.044-4.598-15.299 2.796-21.81 5.593-13.932 5.475-6.773 0 0" fill="#406325"/>
<path transform="matrix(1,0,0,-1,122.7139,361.0341)" d="M0 0C8.415 5.692 10.769 14.042 11.981 22.974 12.189 24.511 11.968 25.534 10.006 24.71 8.332 24.006 7.669 24.554 7.458 26.47 6.867 31.837 4.237 36.392 1.156 40.692 .593 41.478-.093 42.832-1.341 41.37-3.629 38.693-6.128 36.246-7.817 33.021-10.32 28.24-11.391 23.155-11.909 17.915-12.404 12.897-12.04 7.928-9.73 3.308-7.933-.287-5.788-1.645-2.894-1.318-4.101 10.642-3.083 22.409-.094 34.041-1.772 22.841-2.975 11.624-1.679 .284 1.615 5.871 4.262 11.66 6.342 17.712 5.704 11.432 2.363 6.076 0 0" fill="#406325"/>
<path transform="matrix(1,0,0,-1,252.8505,453.0191)" d="M0 0C16.266-3.662 25.6-3.412 37.793 11.653 36.942 12.093 36.263 12.574 35.507 12.814 25.729 15.926 16.119 16.265 6.97 10.777 3.207 8.519 .072 5.674-.98 1.114 6.984 3.414 14.761 5.661 22.537 7.907 15.537 4.261 7.683 3.1 0 0" fill="#406325"/>
<path transform="matrix(1,0,0,-1,245.929,490.9726)" d="M0 0C.345-2.008 1.042-3.805 2.16-5.495 5.031-9.838 9.112-12.84 13.3-15.745 14.171-16.349 14.626-16.415 15.006-15.246 16.938-9.288 18.961-3.312 18.008 3.066 16.721 11.68 11.878 17.786 4.069 22.116 5.437 13.986 8.288 6.67 9.692-1.077 6.852 6.051 4.743 13.463 2.889 21.192 .748 18.608-.339 15.998-.412 13.038-.52 8.688-.744 4.335 0 0" fill="#406325"/>
<path transform="matrix(1,0,0,-1,568.5032,267.3602)" d="M0 0C-4.727-4.46-9.68-8.716-13.258-14.282-12.143-14.537-11.235-13.895-10.248-13.494-4.079-10.989 1.533-7.417 7.281-4.143 20.515 3.395 29.165 14.732 32.353 29.568 34.143 37.894 33.694 37.987 25.034 36.698 20.197 35.978 15.842 33.497 10.884 32.406 11.249 33.728 11.123 34.938 10.87 36.166 9.607 42.298 8.398 48.441 7.152 54.577 5.855 60.956 3.307 66.828 .034 72.433-6.012 82.787-15.891 88.285-26.162 93.312-26.93 93.687-27.504 93.817-28.267 93.012-37.05 83.746-43.237 73.13-46.017 60.542-47.702 52.915-46.542 45.563-44.484 38.311-44.002 36.615-44.031 36.374-45.493 36.618-49.163 37.231-52.874 37.163-56.559 37.472-63.553 38.058-70.503 38.035-77.419 36.667-78.712 36.411-79.373 36.137-78.809 34.571-78.199 32.88-77.87 31.074-77.548 29.294-73.921 9.2-61.387-3.322-43.238-11.039-37.545-13.459-31.508-14.686-25.429-15.617-23.378-15.932-21.221-15.955-18.887-15.451-20.019-14.243-21.179-13.671-22.354-13.325-25.49-12.401-27.905-10.315-30.427-8.451-38.187-2.718-45.008 4.089-52.012 10.686-52.974 11.591-54.203 12.134-55.41 12.746-58.658 14.395-62.544 14.652-65.8 17.601-62.018 16.187-58.753 14.966-55.186 13.632-57.901 17.665-61.776 20.25-64.296 23.832-61.35 20.759-57.888 18.218-54.978 15.153-52.028 12.047-48.865 9.2-45.747 6.29-42.714 3.46-39.808 .474-36.22-1.758-40.34 5.802-43.971 13.488-45.862 21.886-45.477 21.529-45.206 21.117-45.054 20.664-42.344 12.588-38.731 4.928-34.491-2.45-33.715-3.8-32.752-4.901-31.582-5.96-27.768-9.418-23.167-11.501-18.713-13.888-16.596-15.022-16.01-14.532-15.953-12.317-15.869-9.04-16.603-5.732-16.27-2.539-15.461 5.215-16.608 12.894-16.563 20.607-16.556 21.7-16.845 22.722-17.334 23.742-20.185 29.689-23.188 35.578-25.695 41.67-27.545 46.167-30.469 50.115-31.997 54.744-25.64 46.251-22.447 36.077-17.212 26.814-18.021 41.097-22.023 54.717-22.914 68.813-20.739 55.432-17.35 42.277-16.054 28.085-11.403 38.059-10.277 48.221-8.052 58.089-9.068 47.524-11.131 37.21-15.093 27.341-15.497 26.333-15.942 25.386-15.81 24.218-14.928 16.443-14.757 8.637-14.846 .819-14.899-3.777-14.856-8.375-14.856-13-13.734-13.001-13.261-12.356-12.883-11.819-10.093-7.858-6.674-4.52-3.011-1.378-.875 .453 1.23 2.49 1.922 5.327 2.942 9.504 5.192 13.371 4.935 17.864 6.356 13.415 3.733 9.53 3.028 4.913 6.104 7.899 8.185 10.957 10.427 13.903 12.592 16.747 13.763 20.303 16.566 22.674 12.204 14.26 6.921 6.531 0 0" fill="#406325"/>
<path transform="matrix(1,0,0,-1,418.2185,323.6616)" d="M0 0C-.623 .102-1.269 .048-1.901 .11-8.129 .718-13.668-1.418-19.119-4.068-20.325-4.654-21.513-6.657-22.849-5.441-24.084-4.317-22.209-3.071-21.748-1.885-17.455 9.161-18.885 20.324-22.463 30.944-25.781 40.793-31.971 49.257-39.963 56.273-42.155 53.827-43.794 51.016-46.147 48.694-52.665 42.261-57.914 34.892-60.721 26.047-62.81 19.466-64.829 12.846-63.517 5.771-63.357 4.908-63.266 3.645-64.798 4.298-67.651 5.513-70.707 5.136-73.653 5.527-78.095 6.118-82.49 5.354-86.819 4.153-88.306 3.741-88.699 3.029-88.542 1.643-87.916-3.907-86.7-9.276-83.611-14.038-75.406-26.686-64.774-36.182-49.568-39.816-52.184-37.319-54.758-34.841-57.002-32.036-59.265-29.206-61.854-26.639-64.132-23.821-66.409-21.003-68.466-18.008-70.641-15.107-72.73-12.32-74.903-9.587-75.916-6.176-72.924-10.796-69.603-15.147-66.036-19.359-66.036-18.235-66.26-17.216-66.422-16.187-66.588-15.132-67.29-14.104-66.488-12.536-64.822-24.562-56.119-31.305-48.862-39.148-47.916-38.228-47.952-37.4-47.857-36.598-46.98-29.236-46.008-21.884-45.234-14.511-44.827-10.64-43.91-6.683-44.682-2.861-45.552 1.444-47.198 5.592-48.484 9.814-49.428 12.916-50.338 16.028-51.263 19.135-48.374 12.75-46.305 6.118-44.199-1.112-43.381 11.742-42.252 23.957-42.078 36.228-40.867 21.157-42.954 6.174-43.133-8.934-39.905-2.533-36.677 3.867-33.45 10.267-35.179 5.356-37.262 .622-39.686-3.98-41.442-7.315-43.516-10.598-44.027-14.423-45.161-22.915-46.14-31.428-47.198-40.06-36.754-36.197-27.752-31.114-26.288-18.555-26.248-21.704-27.015-24.561-28.324-27.747-24.023-24.506-21.616-20.213-18.011-17.071-21.319-21.854-24.878-26.41-29.305-30.202-33.626-33.904-37.93-37.638-43.733-39.998-36.761-40.852-30.717-39.807-24.878-37.068-13.788-31.866-7.416-22.684-3.092-11.716-1.632-8.01-.402-4.206 1.984-.554 1.207-.331 .614-.1 0 0" fill="#406325"/>
<path transform="matrix(1,0,0,-1,499.6586,328.4551)" d="M0 0C-6.179-7.118-13.131-13.411-20.149-19.634-21.677-20.989-23.857-22.794-23.403-24.41-22.857-26.356-20.145-26.873-17.917-27.27-12.951-28.154-8.436-26.602-3.932-24.955-2.729-24.515-.875-24.312-.774-22.909-.7-21.886-2.422-21.451-3.484-20.973-4.911-20.33-5.404-19.352-3.953-18.408-.653-16.261 .852-12.835 2.606-9.601 5.136-4.933 6.502 .103 7.053 5.385 7.225 7.042 6.647 7.437 5.112 7.196-.561 6.306-6.149 5.205-10.681 1.297-12.394-.18-13.953-1.846-15.73-3.237-19.077-5.857-21.632-9.122-23.787-12.719-25.611-15.764-25.505-19.555-23.729-21.594-15.82-14.397-7.91-7.198 0 0" fill="#406325"/>
<path transform="matrix(1,0,0,-1,649.7254,346.7816)" d="M0 0C-.456-8.887-1.341-18.154-6.322-26.661-10.543-33.871-17.295-37.867-24.037-41.94-32.857-47.268-42.13-47.823-51.59-43.706-56.232-41.685-59.533-38.063-62.414-34.02-63.026-33.162-63.102-32.154-63.22-31.169-63.534-28.552-64.022-25.979-64.649-23.41-65.665-19.249-64.361-15.303-62.949-11.458-55.058 10.041-40.117 23.885-17.948 29.847-15.318 30.555-12.681 31.25-10.086 32.074-8.771 32.491-8.041 32.422-7.348 30.989-2.692 21.375-.12 11.288 0 0M-70.795 93.324C-73.037 90.378-75.118 87.32-78.194 84.334-77.489 88.951-74.866 92.836-76.288 97.285-76.03 92.793-78.28 88.925-79.3 84.748-79.992 81.911-82.097 79.875-84.233 78.043-87.896 74.901-91.315 71.563-94.105 67.602-94.483 67.066-94.956 66.42-96.078 66.422-96.078 71.047-96.121 75.644-96.069 80.24-95.979 88.058-96.15 95.864-97.032 103.639-97.164 104.807-96.72 105.755-96.315 106.762-92.353 116.631-90.29 126.946-89.275 137.51-91.499 127.643-92.625 117.48-97.276 107.507-98.572 121.699-101.961 134.853-104.137 148.234-103.246 134.139-99.243 120.519-98.434 106.235-103.669 115.499-106.862 125.673-113.219 134.165-111.691 129.536-108.768 125.588-106.917 121.091-104.41 115-101.407 109.111-98.556 103.163-98.067 102.143-97.779 101.121-97.785 100.028-97.83 92.315-96.684 84.636-97.492 76.883-97.825 73.69-97.091 70.381-97.175 67.104-97.233 64.889-97.818 64.399-99.935 65.534-104.389 67.921-108.99 70.003-112.804 73.461-113.974 74.521-114.937 75.621-115.713 76.971-119.954 84.349-123.567 92.009-126.276 100.086-126.428 100.538-126.699 100.951-127.084 101.307-125.193 92.909-121.562 85.223-117.442 77.663-121.03 79.896-123.936 82.881-126.969 85.711-130.087 88.621-133.25 91.468-136.2 94.574-139.11 97.639-142.572 100.18-145.518 103.253-142.998 99.671-139.124 97.087-136.408 93.054-139.975 94.388-143.24 95.608-147.022 97.022-143.766 94.074-139.881 93.816-136.632 92.168-135.425 91.555-134.196 91.013-133.234 90.107-126.23 83.511-119.409 76.703-111.649 70.97-109.127 69.106-106.712 67.02-103.577 66.097-102.402 65.75-101.241 65.179-100.109 63.97-102.443 63.466-104.6 63.49-106.651 63.804-112.73 64.736-118.768 65.962-124.46 68.383-142.609 76.099-155.144 88.621-158.771 108.716-159.092 110.495-159.422 112.301-160.031 113.992-160.595 115.558-159.934 115.833-158.641 116.089-151.725 117.457-144.775 117.48-137.781 116.893-134.096 116.584-130.385 116.652-126.715 116.04-125.253 115.796-125.225 116.036-125.706 117.732-127.764 124.984-128.924 132.336-127.24 139.963-124.459 152.552-118.272 163.167-109.489 172.434-108.726 173.238-108.152 173.109-107.384 172.733-97.113 167.706-87.234 162.209-81.188 151.854-77.915 146.249-75.367 140.377-74.071 133.998-72.824 127.863-71.615 121.72-70.352 115.588-70.099 114.359-69.973 113.149-70.339 111.828-65.38 112.918-61.025 115.399-56.188 116.119-47.528 117.408-47.079 117.316-48.869 108.989-52.057 94.154-60.708 82.817-73.941 75.278-79.689 72.004-85.301 68.432-91.47 65.927-92.457 65.527-93.365 64.884-94.48 65.14-90.902 70.705-85.949 74.961-81.222 79.421-74.301 85.952-69.018 93.682-64.656 102.096-67.459 99.724-68.63 96.168-70.795 93.324M-256.385-13.948C-262.224-16.687-268.268-17.732-275.24-16.878-269.437-14.518-265.133-10.784-260.812-7.082-256.385-3.29-252.826 1.266-249.518 6.049-253.123 2.907-255.53-1.386-259.831-4.627-258.522-1.441-257.755 1.416-257.795 4.565-259.259-7.994-268.261-13.077-278.704-16.94-277.647-8.308-276.668 .205-275.534 8.697-275.022 12.522-272.949 15.805-271.193 19.14-268.769 23.742-266.686 28.476-264.957 33.387-268.184 26.987-271.412 20.587-274.64 14.186-274.461 29.294-272.374 44.277-273.585 59.348-273.759 47.077-274.888 34.862-275.705 22.008-277.812 29.238-279.881 35.87-282.77 42.255-281.845 39.148-280.935 36.036-279.991 32.934-278.704 28.712-277.059 24.564-276.189 20.259-275.417 16.437-276.334 12.48-276.741 8.609-277.515 1.236-278.487-6.116-279.364-13.478-279.459-14.28-279.423-15.108-280.369-16.028-287.626-8.185-296.329-1.442-297.995 10.584-298.797 9.016-298.095 7.988-297.929 6.933-297.766 5.904-297.543 4.885-297.543 3.761-301.11 7.973-304.431 12.324-307.423 16.944-306.41 13.533-304.236 10.8-302.148 8.013-299.973 5.112-297.916 2.117-295.639-.701-293.361-3.519-290.772-6.086-288.509-8.916-286.265-11.721-283.691-14.199-281.075-16.696-296.281-13.062-306.913-3.566-315.118 9.082-318.207 13.844-319.423 19.213-320.049 24.763-320.206 26.148-319.813 26.861-318.326 27.273-313.997 28.474-309.602 29.238-305.16 28.647-302.214 28.256-299.158 28.633-296.305 27.418-294.772 26.765-294.863 28.028-295.024 28.891-296.336 35.966-294.317 42.586-292.228 49.167-289.421 58.012-284.172 65.381-277.653 71.814-275.3 74.136-273.662 76.947-271.47 79.393-263.478 72.377-257.288 63.913-253.97 54.064-250.392 43.444-248.962 32.281-253.255 21.235-253.716 20.049-255.59 18.803-254.356 17.679-253.02 16.463-251.832 18.466-250.626 19.052-245.175 21.702-239.636 23.838-233.408 23.23-232.776 23.168-232.13 23.222-231.507 23.12-230.893 23.02-230.3 22.789-229.523 22.566-231.909 18.914-233.139 15.11-234.599 11.404-238.923 .436-245.295-8.746-256.385-13.948M-173.854 5.607C-171.699 9.204-169.144 12.47-165.797 15.089-164.02 16.48-162.461 18.146-160.748 19.624-156.216 23.532-150.627 24.632-144.955 25.523-143.42 25.764-142.841 25.368-143.014 23.712-143.565 18.43-144.931 13.393-147.461 8.726-149.214 5.491-150.72 2.066-154.02-.081-155.471-1.026-154.978-2.003-153.551-2.646-152.489-3.125-150.767-3.56-150.841-4.582-150.942-5.985-152.795-6.189-153.999-6.629-158.503-8.275-163.017-9.827-167.983-8.943-170.211-8.547-172.923-8.029-173.47-6.084-173.924-4.468-171.744-2.663-170.216-1.308-163.198 4.915-156.246 11.208-150.067 18.326-157.977 11.128-165.887 3.93-173.796-3.268-175.571-1.229-175.678 2.563-173.854 5.607M-400.908-122.999C-399.054-130.728-396.944-138.14-394.105-145.268-395.509-137.521-398.359-130.205-399.727-122.075-391.918-126.405-387.075-132.511-385.789-141.125-384.836-147.503-386.859-153.479-388.791-159.437-389.17-160.606-389.626-160.54-390.497-159.936-394.685-157.031-398.766-154.029-401.637-149.686-402.754-147.996-403.452-146.199-403.796-144.191-404.541-139.856-404.316-135.503-404.209-131.153-404.135-128.193-403.048-125.583-400.908-122.999M-389.905-95.461C-380.756-89.973-371.146-90.311-361.368-93.423-360.612-93.664-359.933-94.145-359.082-94.584-371.275-109.65-380.609-109.9-396.875-106.238-389.192-103.137-381.338-101.977-374.338-98.331-382.114-100.577-389.891-102.823-397.855-105.124-396.802-100.563-393.668-97.719-389.905-95.461M-422.101-113.496C-417.612-113.798-413.086-113.562-408.418-113.562-411.877-117.959-419.983-119.355-428.958-119.468-438.02-119.583-443.176-113.34-449.054-107.492-434.1-99.684-421-104.68-408.164-111.993-417.284-112.657-426.393-113.267-435.173-109.678-431.175-112.4-426.649-113.19-422.101-113.496M-407.135-34.264C-414.252-26.36-417.453-17.07-416.08-6.12-416.743-.674-415.633 4.621-413.357 9.985-408.809 20.705-392.261 29.989-381.646 28.906-374.539 28.18-369.37 24.627-364.765 19.531-359.44 13.64-360.252 6.984-362.118 .305-364.806-9.316-371.102-16.52-378.462-22.965-384.019-27.832-389.824-32.412-396.319-35.851-402.387-39.064-402.614-39.283-407.135-34.264M-513.754-73.558C-507.25-86.638-505.838-100.504-508.842-114.829-509.239-116.722-510.15-117.275-511.952-117.44-521.131-118.285-529.926-116.36-537.562-111.675-541.433-109.3-541.912-111.816-543.495-113.365-554.403-124.042-566.727-132.743-580.091-140.065-585.469-143.012-590.946-145.821-596.344-149.99-595.371-146.013-595.693-142.76-596.419-139.567-597.715-133.871-598.147-128.083-598.224-122.285-598.409-108.266-594.015-95.711-585.685-84.49-585.631-84.417-585.577-84.344-585.519-84.273-583.009-81.186-583.034-81.243-586.923-79.546-599.176-74.197-607.739-65.273-612.624-52.823-612.883-52.163-613.185-51.782-612.191-51.195-602.305-45.361-591.75-41.182-580.258-40.899-565.939-40.546-552.008-42.728-540.432-52.273-537.47-54.715-535.045-57.809-532.373-60.603-532.5-60.81-532.628-61.016-532.755-61.222-536.264-60.794-539.764-60.229-543.285-59.97-548.433-59.591-553.498-58.224-558.686-58.511-563.61-58.783-567.401-55.756-571.735-54.328-575.922-52.948-580.044-51.377-584.502-51.009-578.557-52.972-572.543-54.734-566.876-57.676-575.899-57.746-584.756-59.336-593.711-60.003-579.51-59.92-565.291-57.901-550.984-60.66-559.613-63.836-567.558-68.535-576.16-71.83-572.787-71.252-569.547-70.187-566.567-68.608-561.279-65.808-555.612-63.922-550.186-61.462-549.07-60.957-547.794-60.622-546.487-60.809-542.376-61.397-538.196-61.477-533.838-62.561-535.429-63.868-536.842-65.073-538.302-66.219-547.325-73.302-555.082-81.701-562.961-89.972-563.982-91.044-565.05-91.874-566.462-92.427-573.138-95.041-578.458-99.778-584.076-104.016-585.282-104.926-585.967-106.527-586.762-107.929-580.691-102.094-574.017-97.176-565.878-93.146-573.092-104.193-581.817-113.633-585.732-125.887-577.083-109.413-566.468-94.415-552.926-81.557-555.85-92.081-559.177-102.39-562.867-112.588-559.973-106.985-557.788-101.114-555.881-95.132-554.213-89.901-552.55-84.667-550.806-79.461-550.593-78.827-549.928-78.319-549.412-77.814-544.745-73.249-539.949-68.828-534.671-64.964-532.37-63.28-532.12-63.414-531.358-66.137-530.702-68.481-530.055-70.849-528.755-72.943-527.126-75.564-527.039-78.136-528.196-81.05-530.005-85.607-530.806-90.419-530.819-95.349-530.823-96.905-530.689-98.417-529.941-100.165-529.678-96.388-529.908-92.872-529.243-89.383-528.564-85.822-527.766-82.343-526.258-78.675-521.708-87.794-519.783-97.293-517.992-106.41-517.382-104.005-517.53-102.881-518.834-97.297-519.586-94.077-520.024-90.784-521.26-87.6-518.014-89.372-515.45-91.854-512.755-94.165-513.406-92.409-517.366-88.451-520.159-86.959-520.918-86.554-521.575-86.197-521.891-85.375-524.711-78.043-528.631-71.165-530.886-63.597-531.034-63.101-531.5-62.695-530.917-62.161-530.275-61.573-529.571-61.773-528.866-61.879-521.666-62.968-516.779-67.474-513.754-73.558M-528.691-13.969C-529.986-2.629-528.784 8.588-527.106 19.788-530.094 8.156-531.112-3.611-529.906-15.571-532.799-15.897-534.945-14.54-536.742-10.945-539.051-6.324-539.416-1.355-538.92 3.662-538.403 8.902-537.332 13.987-534.828 18.769-533.14 21.994-530.64 24.44-528.353 27.118-527.104 28.58-526.419 27.225-525.855 26.439-522.774 22.14-520.145 17.584-519.553 12.218-519.342 10.301-518.68 9.754-517.005 10.457-515.044 11.281-514.822 10.258-515.031 8.721-516.243-.211-518.596-8.561-527.012-14.253-524.648-8.176-521.308-2.821-520.669 3.46-522.75-2.592-525.396-8.381-528.691-13.969M-454.64-3.23C-450.926-11.733-445.84-19.319-439.266-25.989-446.577-27.512-451.699-26.47-456.588-18.436-460.237-12.439-462.029-5.654-461.062 1.561-461.038 1.74-461.032 1.922-461.02 2.103-460.711 6.727-460.745 6.598-456.244 5.4-450.084 3.759-444.65 1.249-440.464-3.93-434.988-10.703-434.871-17.862-437.668-25.74-445.061-19.229-449.503-10.974-454.64-3.23M-405.878 48.067C-405.428 51.128-405.21 53.44-406.315 55.731-405.046 44.685-412.103 38.154-419.134 30.936-420.685 35.826-420.874 40.266-421.564 44.611-421.863 46.487-422.015 48.392-422.136 50.29-422.419 54.714-422.092 58.751-419.851 63.031-416.531 69.369-414.542 76.411-414.406 83.852-416.059 76.125-418.036 68.468-422.18 61.545-422.448 66.596-422.564 71.661-423.028 76.694-423.488 81.686-423.074 86.647-423 91.624-424.597 83.398-423.911 75.11-423.494 66.245-427.192 71.771-429.611 77.258-431.807 82.873-431.281 79.202-430.231 75.651-428.237 72.601-424.548 66.96-422.965 60.989-423.285 54.214-423.609 47.339-422.498 40.499-421.257 33.722-421.164 33.213-421.245 32.672-421.245 32.1-432.895 36.399-440.838 44.079-443.702 56.621-443.992 56.405-444.281 56.19-444.571 55.974-443.84 54.078-443.067 52.196-442.388 50.281-441.673 48.266-440.117 46.617-439.867 44.344-444.108 48.168-448.639 51.641-452.077 56.195-444.243 44.743-433.696 36.487-420.658 30.222-426.512 29.452-431.659 29.821-436.629 31.501-449.032 35.694-458.399 43.608-464.59 55.142-465.95 57.676-466.666 60.551-467.792 63.221-468.286 64.393-467.729 64.688-466.815 64.891-458.986 66.623-451.577 70.441-443.248 69.681-441.232 69.497-440.336 69.582-440.701 72.303-441.6 79.007-439.469 85.279-436.309 91.072-433.065 97.016-430.233 103.243-425.663 108.396-424.772 109.4-424.041 109.75-422.99 108.763-417.517 103.621-411.764 98.783-409.069 91.33-406.636 84.6-405.678 77.825-407.228 70.829-407.572 69.28-407.155 69.132-405.907 69.091-402.923 68.992-400.015 69.805-396.96 69.382-392.873 68.817-389.507 66.679-385.857 65.152-384.885 64.745-384.942 63.929-385.267 63.098-389.1 53.313-393.661 44.014-402.13 37.239-405.831 34.279-412.523 31.272-417.816 30.493-413.432 34.567-410.091 39.062-407.132 43.842-404.197 48.581-401.016 53.2-399.585 58.736-401.518 55.374-403.296 51.916-405.878 48.067M401.962 23C393.455 15.492 384.066 9.235 374.65 3.033 369.456-.387 364.078-3.563 358.288-6.068 347.307-10.821 336.109-14.977 324.738-18.607 310.88-23.03 296.599-25.694 282.07-26.569 268.928-27.36 255.758-28.188 242.621-26.177 220.469-22.784 199.156-16.438 178.615-7.595 152.337 3.718 126.291 15.596 99.337 25.249 89.976 28.602 80.43 31.603 70.76 33.881 60.276 36.35 49.553 37.747 38.797 38.806 23.973 40.265 9.252 40.388-5.294 36.697-6.91 36.286-7.711 36.739-8.704 37.942-14.482 44.941-21.49 50.396-29.876 53.92-39.595 58.004-49.806 60.377-60.179 62.014-68.534 63.332-76.924 64.096-85.381 62.647-88.291 62.149-91.277 62.096-94.229 61.839-86.3 63.845-79.736 68.589-72.805 72.312-66.02 75.957-60.337 81.383-55.909 87.87-50.368 95.988-46.012 104.562-45.931 114.712-45.902 118.384-46.121 118.758-49.914 118.883-56.258 119.092-62.491 118.508-68.239 114.802-67.999 120.914-69.977 126.35-70.98 131.955-72.223 138.897-74.747 145.371-77.935 151.595-84.035 163.504-94.771 169.76-106.516 174.729-107.664 175.215-108.635 175.19-109.75 174.277-117.771 167.707-123.32 159.339-126.802 149.743-130.321 140.042-132.871 130.073-128.849 119.763-128.372 118.541-128.863 118.123-130.091 118.201-132.61 118.362-135.137 118.413-137.652 118.616-144.557 119.174-151.422 119.054-158.249 117.732-162.646 116.881-162.652 116.93-161.736 112.645-161.642 112.203-161.605 111.748-161.545 111.299-159.264 94.39-150.952 81.268-136.808 71.769-127.945 65.817-118.004 62.732-107.085 60.542-108.243 60.349-108.846 60.195-109.455 60.154-117.727 59.59-125.825 57.991-133.896 56.182-149.655 52.652-164.636 46.964-179.262 40.202-194.51 33.153-208.769 24.587-221.692 13.794-225.654 10.485-229.871 7.429-234.558 5.017-231.538 10.379-231.148 16.733-227.633 21.791-227.171 22.455-226.843 23.425-227.704 23.608-230.696 24.245-233.167 26.374-236.485 26.193-241.437 25.921-245.739 23.843-250.248 21.82-250.112 22.785-250.001 23.574-249.889 24.364-249.864 24.543-249.851 24.726-249.808 24.901-245.671 41.53-249.797 56.277-259.861 69.749-262.915 73.836-266.781 77.172-269.906 81.181-270.831 82.369-271.627 81.357-272.387 80.709-276.83 76.929-280.611 72.544-284.346 68.077-292.956 57.782-297.539 46.041-297.34 32.609-297.3 29.843-298.268 29.655-300.429 30.041-306.136 31.06-311.797 30.809-317.439 29.41-323.211 27.979-323.611 27.639-322.223 21.72-318.143 4.323-306.906-7.285-291.679-15.595-288.805-17.164-285.55-17.652-282.167-18.761-283.202-19.6-283.962-20.227-284.733-20.839-291.093-25.882-298.191-29.715-305.349-33.461-314.293-38.142-323.687-41.723-333.267-44.806-342.752-47.859-352.552-49.154-362.499-49.388-372.509-49.624-382.259-48.381-391.468-44.183-394.044-43.009-396.729-42.004-399.394-39.844-394.841-39.03-391.256-37.034-388.207-34.365-384.383-31.017-380.466-27.784-376.621-24.466-369.136-18.01-362.238-11.054-359.615-1.104-355.163 15.782-362.322 28.247-380.027 30.906-392.065 32.713-401.442 27.142-409.727 19.133-410.294 18.585-410.578 17.719-411.638 17.487-412.923 21.55-414.921 25.237-417.814 28.451-416.895 29.064-416.091 29.217-415.165 29.17-412.086 29.015-409.305 29.945-406.619 31.441-395.311 37.741-389.385 48.224-384.582 59.592-383.986 61.003-383.413 62.443-383.349 64.025-383.323 64.677-383.208 65.325-383.814 65.762-388.964 69.472-394.209 72.848-401.067 71.479-402.417 71.21-403.839 71.304-405.251 71.23-403.915 80.163-404.379 88.504-408.751 96.363-412.116 102.412-417.226 106.64-422.61 110.726-424.247 111.969-424.885 111.576-426.159 110.429-429.565 107.358-431.388 103.256-433.605 99.434-438.249 91.428-443.105 83.445-442.46 73.616-442.346 71.878-443.325 71.864-444.656 71.794-452.684 71.371-460.509 70.033-467.828 66.461-469.135 65.822-469.753 65.034-469.739 63.545-469.705 60.032-469.125 56.699-467.335 53.606-465.27 50.042-462.692 46.883-459.923 43.864-449.177 32.152-436.239 25.825-419.999 27.674-418.988 27.789-418.329 27.602-417.743 26.678-415.896 23.764-414.166 20.797-413.115 17.496-412.83 16.599-412.497 15.697-413.142 14.657-418.266 6.381-419.656-2.804-418.925-12.271-418.226-21.341-415.954-29.945-408.747-36.368-407.748-37.258-406.829-38.238-405.743-39.304-407.037-39.855-408.067-40.458-409.455-40.115-419.052-37.737-427.829-33.598-435.976-28.032-437.316-27.117-437.276-26.413-436.65-24.992-435.379-22.108-434.13-19.051-434.332-15.868-434.896-6.953-439.864-.74-447.302 3.603-451.472 6.039-456.355 6.667-460.888 8.195-462.45 8.721-462.548 7.735-462.564 6.624-462.596 4.444-462.575 2.26-462.689 .084-463.042-6.625-461.488-12.987-458.178-18.682-454.719-24.632-449.962-28.989-442.131-28.133-440.45-27.95-438.432-26.967-436.699-28.502-433.003-31.778-428.631-33.953-424.276-36.198-420.104-38.349-415.577-39.435-410.93-40.837-411.977-41.952-413.089-42.095-414.076-42.4-427.385-46.516-441.081-48.09-454.938-48.047-465.464-48.015-475.968-47.198-486.386-45.519-497.334-43.756-508.055-41.25-518.086-36.321-519.343-35.703-520.283-34.974-521.064-33.729-524.127-28.849-525.845-23.439-527.756-18.078-528.341-16.438-527.348-16.328-526.523-16.083-524.095-15.361-521.869-14.216-520.448-12.162-515.589-5.143-512.712 2.567-512.958 11.243-513.017 13.297-513.776 14.448-516.001 13.368-517.616 12.584-518.105 12.973-518.345 14.813-519.007 19.892-521.134 24.34-524.849 27.962-527.474 30.521-527.461 30.529-529.962 27.675-530.74 26.786-531.592 25.957-532.323 25.033-540.59 14.579-542.523 2.806-538.96-9.803-537.829-13.806-535.56-17.563-530.239-17.173-528.777-17.066-528.491-18.277-528.31-19.308-527.361-24.73-524.971-29.555-522.356-34.154-551.147-23.017-571.126-2.508-584.539 24.974-585.052 24.02-584.613 23.391-584.298 22.752-580.302 14.631-576.435 6.449-570.367-.447-562.254-9.667-553.935-18.597-543.619-25.512-538.23-29.124-532.366-31.729-526.684-34.719-516.956-39.839-506.766-43.773-496.006-46.157-494.411-46.511-492.83-46.926-491.251-47.345-489.709-47.755-487.99-47.457-486.373-48.382-501.298-51.148-515.965-53.903-529.815-59.749-531.076-60.281-531.349-59.757-531.863-58.914-533.769-55.784-536.173-53.091-539.033-50.786-547.914-43.626-558.411-40.619-569.448-39.488-585.221-37.87-599.935-41.189-613.202-50.163-613.996-50.701-614.704-51.116-614.392-52.283-613.237-56.589-611.853-60.779-609.086-64.381-603.636-71.48-597.048-77.182-588.893-80.99-588.151-81.337-587.217-81.4-588.123-82.787-594.508-92.559-599.78-102.787-600.986-114.683-601.629-121.035-601.926-127.26-600.281-133.593-599.199-137.764-597.893-141.988-597.934-146.42-597.952-148.339-599.436-151.032-597.855-151.951-596.371-152.814-594.457-150.43-592.798-149.445-584.217-144.357-575.168-140.028-566.77-134.739-556.841-128.487-547.001-121.753-539.878-111.902-538.415-113.246-537.04-114.581-535.294-115.376-527.778-118.799-519.91-120.236-511.682-119.285-507.019-118.746-507.001-118.594-506.258-113.744-505.109-106.249-504.674-98.716-505.774-91.205-507.792-77.421-513.477-65.995-526.648-59.791-517.576-56.619-507.972-54.522-498.445-52.118-488.057-49.496-477.628-48.656-466.915-49.621-456.05-50.599-445.094-50.422-434.255-49.168-424.248-48.01-414.55-45.23-405.017-41.963-403.815-41.551-402.749-41.143-401.441-41.921-393.61-46.58-385.178-49.726-375.474-51.712-381.318-54.967-385.467-59.273-389.446-63.698-399.027-74.353-404.611-86.775-405.35-101.212-405.519-104.504-404.944-107.716-404.333-110.928-404.228-111.48-403.807-112.301-404.65-112.587-405.074-112.731-405.704-112.486-406.161-112.256-406.634-112.017-406.979-111.54-407.43-111.243-420.167-102.862-433.472-98.614-448.344-105.585-450.89-106.779-451.114-107.409-449.138-109.468-447.126-111.565-445.107-113.685-442.877-115.535-440.528-117.485-438.192-119.508-435.019-120.214-428.194-121.731-421.499-121.105-414.845-119.302-412.554-118.681-410.39-117.648-408.497-116.291-403.814-112.935-403.886-112.854-402.06-118.561-401.688-119.724-401.281-120.543-402.4-121.844-403.763-123.43-404.79-125.595-405.193-127.66-406.313-133.408-406.176-139.28-405.022-144.983-403.338-153.31-396.673-157.58-390.202-161.853-389.095-162.584-388.081-162.212-387.694-160.825-386.12-155.181-383.796-149.733-384.099-143.648-384.527-135.036-388.34-128.118-395.288-123.516-398.532-121.368-401.182-119.824-401.492-115.613-401.653-113.422-400.535-109.259-398.705-107.941-398.211-107.585-397.731-107.615-397.17-107.734-394.787-108.242-392.408-108.801-390.002-109.169-382.592-110.302-375.316-110.16-368.718-106.004-364.213-103.166-361.103-98.777-357.25-95.206-356.311-94.336-357.13-93.857-357.909-93.4-360.706-91.759-363.837-91.278-366.94-90.651-375.653-88.889-383.904-89.93-391.467-94.785-394.881-96.977-397.951-99.64-398.503-103.977-398.9-107.103-401.159-109.163-402.326-112.354-404.151-105.778-404.412-99.595-402.976-93.585-398.993-76.918-390.45-63.21-375.866-53.656-373.662-52.213-371.446-51.57-368.728-51.726-364.486-51.969-360.197-51.883-355.957-51.562-344.851-50.718-334.145-48.123-323.75-44.067-316.143-41.098-308.428-38.36-301.379-34.211-297.955-32.196-294.918-31.451-290.798-32.27-272.845-35.837-254.865-34.642-236.957-31.475-225.224-29.401-214.139-25.278-203.048-21.073-197.012-18.785-191.765-14.903-185.584-12.994-183.332-12.298-181.286-11.309-179.426-9.713-177.357-7.937-174.958-6.207-172.306-9.194-171.833-9.726-170.842-9.858-170.06-10.048-163.543-11.637-157.489-9.875-151.61-7.301-147.75-5.611-147.718-4.558-151.105-2.033-151.678-1.606-152.966-1.192-151.667-.337-148.402 1.811-147.315 5.426-145.658 8.574-142.929 13.755-141.618 19.408-141.348 25.285-141.284 26.695-141.79 27.385-143.232 27.147-148.483 26.282-153.886 25.936-158.506 22.838-163.508 19.483-167.976 15.476-171.889 10.941-176.027 6.146-178.048 .584-176.253-5.839-176.075-6.476-176.342-6.699-176.745-6.853-179.148-7.772-180.798-10.067-183.155-10.819-192.83-13.905-201.575-19.1-211.068-22.672-228.002-29.045-245.443-31.956-263.347-32.854-269.066-33.141-274.795-32.811-280.482-32.203-284.771-31.745-289.152-31.653-293.687-30.048-290.303-27.32-286.619-25.592-283.852-22.728-281.054-19.833-277.838-19.048-273.834-19.314-261.278-20.149-250.305-15.97-242.413-6.247-237.803-.566-232.442 3.573-226.527 7.594-214.533 15.747-203.272 24.892-190.409 31.86-166.296 44.923-140.552 52.869-113.657 57.072-105.12 58.405-96.335 58.709-87.675 59.545-71.491 61.108-55.65 60.648-40.219 54.649-29.148 50.345-19 44.87-10.986 35.486-17.744 33.541-24.132 31.189-30.386 28.363-47.845 20.474-59.391 7.408-65.639-10.571-67.553-16.077-68.084-21.729-67.653-27.469-67.352-31.484-66.354-35.355-63.672-38.554-57.269-46.194-48.666-48.703-39.158-48.677-26.331-48.642-16.638-42.029-8.164-33.194-7.175-32.162-5.834-31.53-5.126-30.163 .75-18.805 2.778-6.694 1.745 5.938 .982 15.282-.929 24.389-5.32 33.07-.201 34.053 4.715 35.297 9.805 35.566 19.338 36.07 28.852 35.526 38.38 35.346 58.875 34.959 78.19 29.891 97.162 22.811 102.931 20.658 108.589 18.136 114.477 16.382 131.183 11.402 147.144 4.564 163.011-2.529 181.715-10.891 200.744-18.218 220.618-23.483 244.405-29.785 268.404-30.08 292.516-27.195 306.902-25.474 320.975-21.994 334.671-16.957 344.448-13.362 354.215-9.75 363.649-5.38 372.345-1.352 379.975 4.609 387.927 9.878 397.501 16.221 405.505 24.738 414.965 31.361 416.448 32.4 417.499 34.055 418.75 35.425 412.917 31.515 407.153 27.582 401.962 23" fill="#8b9e6c"/>
</g>
</g>
</svg>
