<svg xmlns="http://www.w3.org/2000/svg" xmlns:xlink="http://www.w3.org/1999/xlink" version="1.1" width="1117.09pt" height="1107.82pt" viewBox="0 0 1117.09 1107.82">
<defs>
<clipPath id="clip_1">
<path transform="matrix(1,0,0,-1,0,1107.82)" d="M0 1107.818H1117.091V0H0Z"/>
</clipPath>
</defs>
<g id="layer_1" data-name="Layer">
<g clip-path="url(#clip_1)">
<path transform="matrix(1,0,0,-1,246.4756,812.6437)" d="M0 0C-9.186 25.519-20.098 50.446-35.324 73.938-36.589 71.609-37.798 69.874-38.521 67.955-40.503 62.698-42.414 57.407-44.105 52.051-46.683 43.889-47.393 35.335-49.115 26.996-50.091 22.273-49.267 18.102-47.483 13.895-45.832 10.001-43.765 6.233-42.59 2.202-41.36-2.018-39.493-5.911-37.485-9.711-35.04-14.338-33.637-19.405-31.045-23.949-30.693-24.567-30.186-25.35-30.628-26.032-38.367-12.683-44.339 1.593-50.394 16.425-53.562-2.243-54.509-20.54-58.04-38.595-58.948-34.62-57.455-30.948-57.221-27.183-56.596-17.125-55.64-7.099-54.408 2.898-53.342 11.544-52.656 20.221-51.287 28.85-49.461 40.358-47.4 51.732-42.996 62.578-42.158 64.644-41.505 66.785-40.766 68.892-48.628 63.625-55.766 57.736-62.457 51.194-69.108 44.69-75.442 37.856-82.486 31.758-69.13 47.187-54.841 61.642-37.328 73.752-43.461 73.642-48.036 71.171-52.994 70.246-57.633 69.38-62.044 67.596-66.388 65.837-78.097 61.096-88.618 54.631-97.492 45.336-102.883 39.69-107.72 33.808-111.532 27.051-112.735 24.918-113.542 22.629-113.994 20.175-114.277 18.639-113.888 18.102-112.47 17.719-108.83 16.735-105.131 16.645-101.405 16.683-98.385 16.714-95.364 16.689-91.594 16.689-92.89 15.108-93.695 14.475-94.026 13.378-96.219 6.121-97.328-1.302-97.651-8.854-97.932-15.426-97.03-21.899-95.981-28.367-94.234-39.133-92.078-49.774-88.065-59.981-85.434-66.674-82.124-73.016-78.925-79.434-77.678-81.936-76.829-81.817-74.592-80.928-67.225-78.003-60.351-74.136-53.427-70.361-39.279-62.646-26.462-53.211-15.952-40.87-12.102-36.349-8.723-31.53-7.442-25.575-7.033-23.669-5.858-23.198-4.235-23.827-2.554-24.48-1.034-25.657 .686-26.082 4.999-27.146 8.728-29.347 12.4-31.665 13.616-32.432 14.018-32.369 14.402-30.97 15.46-27.113 16.446-23.256 16.769-19.247 17.994-4.09 15.103 10.123 7.535 23.416 4.661 28.465 1.659 33.422-1.37 38.374-5.595 45.278-9.967 52.015-16.099 57.452-21.035 61.827-25.831 66.359-31.238 71.326-30.461 69.017-29.565 67.583-28.551 66.246-26.893 64.06-25.791 61.568-24.431 59.216-20.987 53.255-18.047 47.057-15.324 40.741-11.353 31.528-7.195 22.393-3.356 13.126-1.914 9.647-1.654 5.745-.05 2.257 .291 1.516 0 .484 0 0M71.62 622.5C97.147 600.164 121.685 576.828 143.932 551.041 129.344 594.759 112.087 637.338 93.237 679.385 96.652 674.224 99.481 668.774 102.006 663.226 109.722 646.271 115.447 628.473 123.87 611.8 127.384 604.843 128.544 596.932 131.778 589.85 140.385 571.007 146.041 551.083 153.158 531.701 161.284 509.572 167.866 486.891 173.663 464.029 175.52 456.704 177.603 449.307 177.326 441.579 177.292 440.614 177.335 439.593 178.099 438.691 182.347 445.632 185.783 452.911 188.656 460.443 192.58 470.733 195.099 481.431 197.537 492.146 198.93 498.269 200.023 504.462 200.223 510.725 200.514 519.815 200.172 528.945 199.017 537.944 197.318 551.18 194.952 564.33 192.831 577.511 190.77 590.319 188.706 603.138 185.29 615.668 181.903 628.089 179.497 640.741 176.171 653.173 175.739 654.786 175.054 655.183 173.498 654.832 168.069 653.605 163.1 651.269 158.308 648.547 156.946 647.774 156.35 647.677 155.748 649.335 153.86 654.534 151.858 659.694 149.831 664.841 146.363 673.651 141.631 681.821 137.197 690.16 130.516 702.727 121.79 713.655 111.988 723.837 104.911 731.189 96.307 736.759 88.946 743.816 83.661 748.884 82.931 748.456 77.1 743.803 68.16 736.669 61.203 727.602 53.265 719.494 51.11 717.293 48.6 715.155 47.292 712.48 45.382 708.576 42.247 706.167 39.021 703.739 37.247 702.404 35.187 701.447 34.174 698.988 32.883 701.112 31.044 702.307 29.588 703.892 19.718 714.643 8.756 724.181-3.073 732.694-11.934 739.071-21.633 744.122-31.004 749.687-36.536 752.972-42.111 756.14-48.262 758.303-57.404 761.518-66.322 765.37-75.453 768.617-80.39 770.373-85.319 772.225-90.462 773.399-100.633 775.722-110.994 776.938-121.244 778.797-125.542 779.576-125.52 779.439-127.355 775.318-132.917 762.827-136.692 749.731-139.995 736.529-141.799 729.319-144.059 722.118-144.88 714.754-146.501 700.228-147.604 685.646-147.22 670.977-146.858 657.151-145.942 643.383-144.034 629.695-142.943 621.866-140.82 614.227-139.132 606.509-135.297 588.973-129.642 572.056-121.971 555.817-116.195 543.59-109.188 532.197-99.721 522.424-95.421 517.985-91.29 513.39-87.256 508.701-84.823 505.873-83.009 502.445-79.417 500.663-77.597 499.76-78.856 499.027-79.909 498.513-84.22 496.407-88.562 494.384-93.045 492.643-107.699 486.951-122.116 480.409-138.341 480.624-138.33 480.449-138.38 480.236-138.299 480.105-129.08 465.299-119.671 450.741-106.96 438.441-96.568 428.387-85.092 420.105-72.302 413.689-59.497 407.267-45.715 403.449-31.724 400.543-28.481 399.869-25.069 399.306-21.715 399.751-19.494 400.045-18.564 399.581-18.931 397.379-20.168 389.943-18.931 382.719-17.035 375.592-15.65 370.385-13.385 365.52-9.889 361.346-9.188 360.509-8.556 358.883-6.886 360.04-3.872 362.128-.363 363.213 2.869 364.864 15.776 371.458 29.314 376.508 43.233 380.4 60.545 385.241 77.736 390.491 95.044 395.331 117.175 401.519 137.907 410.637 156.835 423.743 160.809 426.494 164.82 429.187 168.652 432.896 166.825 433.073 165.769 432.561 164.666 432.163 160.582 430.691 156.545 429.036 152.372 427.87 136.913 423.553 121.037 421.132 105.367 417.768 87.328 413.896 68.952 411.752 51.287 405.918 40.646 402.404 29.944 399.121 19.532 394.954 18.903 394.702 18.25 393.927 17.226 394.661 31.399 401.787 46.418 406.242 61.428 410.534 77.377 415.095 93.936 416.966 110.149 420.426 123.787 423.337 137.556 425.634 151.047 429.227 152.734 429.676 154.496 429.989 156.23 431.367 153.462 431.417 151.215 430.562 148.891 430.296 137.876 429.035 126.835 428.14 115.737 428.112 106.469 428.089 97.196 427.883 87.944 428.668 76.361 429.651 64.694 430.24 53.287 432.416 33.71 436.152 14.419 441.275-5.215 444.831-15.887 446.764-26.371 449.713-37.016 451.817-47.387 453.867-57.911 455.052-68.236 457.459-73.587 458.707-78.545 461.388-81.666 461.535-40.538 453.058 3.333 445.848 47.311 435.338 46.061 437.047 44.977 437.354 44.057 437.896 40.387 440.058 36.602 442.042 33.182 444.602 16.257 457.269-1.047 469.374-19.229 480.193-24.721 483.46-29.365 487.793-33.913 492.242-33.515 492.226-33.216 492.077-32.943 491.89-28.528 488.859-24.803 484.896-20.142 482.216-9.521 476.109 .575 469.202 10.804 462.479 23.307 454.26 34.65 444.354 47.879 437.213 50.72 435.68 53.368 433.873 56.76 433.562 75.66 431.827 94.488 429.562 113.564 429.961 129.499 430.295 145.285 431.627 161.024 433.906 162.616 434.136 164.316 434.03 166.033 435.076 163.069 435.858 160.353 436.495 157.814 437.717 153.461 439.812 149.168 442.102 144.652 443.778 133.136 448.052 122.337 453.796 111.511 459.488 99.861 465.613 88.616 472.447 77.307 479.176 63.332 487.491 49.798 496.34 37.026 506.48 18.597 521.113 1.674 537.252-14.114 554.639-14.678 555.26-15.273 555.768-16.03 556.109-26.043 560.619-35.619 565.964-44.52 572.351-54.694 579.652-64.361 587.577-73.285 596.459-82.491 605.622-91.777 614.694-100.406 624.403-103.665 628.07-106.844 631.85-109.404 636.053-82.577 605.679-55.065 576.162-17.606 558.201-17.621 559.134-18.28 559.549-18.741 560.044-24.091 565.776-28.56 572.169-33.037 578.584-41.615 590.877-49.867 603.376-57.064 616.524-65.995 632.839-72.153 650.451-80.582 667.04-88.69 682.998-94.373 700.094-101.813 716.4-104.391 722.051-104.955 728.36-107.173 734.16-105.96 732.712-105.129 731.073-104.712 729.329-102.592 720.465-98.677 712.325-94.945 704.079-88.416 689.649-83.199 674.633-75.641 660.662-72.401 654.672-69.634 648.475-67.022 642.194-61.757 629.535-55.864 617.192-48.492 605.591-38.509 589.879-28.71 574.043-16.303 560.043-14.935 558.5-13.186 557.22-12.06 555.604-9.874 552.464-7.204 549.881-4.245 546.559-4.485 549.831-6.509 551.518-7.034 553.778-9.137 562.835-12.706 571.471-14.443 580.649-16.057 589.175-18.425 597.556-20.096 606.073-22.831 620.011-25.756 633.899-29.999 647.462-32.945 656.88-34.398 666.596-36.282 676.241-35.487 675.141-35.133 673.889-34.851 672.594-33.657 667.12-32.711 661.574-31.174 656.198-27.348 642.816-23.484 629.454-20.613 615.822-17.466 600.875-14.335 585.927-10.55 571.118-9.674 567.69-8.094 564.506-7.553 560.998-6.707 555.505-3.441 550.819-2.268 545.42-2.127 544.77-1.534 544.168-1.035 543.654 6.793 535.586 14.69 527.602 23.246 520.274 35.809 509.513 48.624 499.064 62.667 490.311 79.375 479.896 96.264 469.742 113.792 460.741 123.055 455.985 132.066 450.672 142.03 447.347 147.346 445.573 152.586 443.587 157.74 441.337 162.042 439.459 166.629 438.245 171.397 438.035 172.723 437.977 174.826 437.735 174.751 439.221 174.619 441.855 175.458 444.526 174.777 447.049 173.66 451.187 173.381 455.486 172.282 459.587 169.277 470.802 166.602 482.104 163.148 493.204 159.161 506.016 155.49 518.927 151.212 531.65 149.288 537.369 147.708 543.552 143.971 548.116 134.888 559.208 125.228 569.86 115.324 580.234 106.804 589.158 96.884 596.684 88.831 606.126 86.592 608.751 83.875 610.92 81.135 613.036 77.57 615.789 74.477 619.03 71.62 622.5M381.416 52.033C381.906 51.462 382.17 51.099 382.487 50.791 397.873 35.847 413.159 20.798 429.721 7.122 452.076-11.336 474.967-29.105 498.194-46.446 501.478-48.897 504.923-51.073 508.43-53.181 513.643-56.314 518.873-59.438 523.924-62.822 545.808-77.483 568.475-90.845 591.554-103.504 606.964-111.956 622.282-120.58 638.984-126.452 660.9-134.158 681.955-144.268 704.956-148.931 720.069-151.995 734.521-158.508 750.447-157.271 744.774-158.181 739.148-158.537 733.483-157.384 720.008-154.642 706.897-150.44 693.46-147.532 681.647-144.977 670.471-140.468 659.324-135.897 647.258-130.949 634.617-127.418 622.82-121.852 596.29-109.335 571.096-94.358 545.884-79.416 534.234-72.511 523.236-64.616 511.657-57.619 507.462-55.084 503.075-52.864 499.101-49.966 479.206-35.456 459.795-20.314 440.499-5.023 435.187-.813 430.022 3.583 424.509 8.124 424.509 7.02 424.431 6.323 424.522 5.649 425.261 .141 427.409-4.97 428.984-10.246 431.606-19.026 434.537-27.702 437.682-36.301 441.182-45.872 446.214-54.738 450.955-63.714 458.285-77.593 465.959-91.287 474.053-104.743 476.066-108.09 478.05-111.446 480.4-114.575 489.622-126.856 499.141-138.892 509.322-150.402 517.564-159.719 525.377-169.467 536.496-175.688 537.651-176.334 538.693-177.195 539.206-178.489 537.541-177.008 535.658-175.92 533.721-174.923 530.964-173.503 528.452-171.753 526.086-169.74 517.74-162.635 510.862-154.152 503.562-146.055 493.753-135.176 484.252-123.973 476.296-111.731 462.048-89.808 449.525-66.833 438.274-43.229 432.495-31.106 429.22-17.985 425.17-5.202 423.958-1.376 422.26 2.447 422.38 6.631 422.452 9.141 421.355 10.773 419.412 12.519 402.578 27.638 386.249 43.264 370.591 59.638 358.729 72.043 346.357 84.008 334.652 96.551 318.048 114.346 301.454 132.203 286.475 151.45 284.943 153.419 283.254 155.273 281.051 157.004 280.996 154.453 278.349 153.839 277.89 151.846 277.078 148.31 275.973 144.788 276.005 141.132 276.083 132.217 275.213 123.344 274.981 114.448 274.332 89.648 272.962 64.872 272.871 40.053 272.815 24.848 274.46 9.745 274.949-5.42 274.981-6.397 275.497-7.113 275.967-7.89 282.451-18.597 288.91-29.32 295.4-40.023 310.179-64.395 327.045-87.199 346.535-108.03 347.076-108.607 347.83-109.113 347.931-110.599 346.226-109.003 344.864-107.806 343.59-106.521 335.968-98.834 329.406-90.215 322.243-82.122 316.162-75.251 311.443-67.316 306.218-59.784 297.418-47.1 289.303-33.989 281.672-20.572 280.012-17.652 278.122-14.863 275.989-11.457 277.117-33.611 280.331-54.7 283.973-75.735 285.664-85.498 288.909-94.892 290.824-104.601 295.56-128.604 302.309-151.927 312.942-174.091 317.173-182.908 322.618-191.312 323.952-201.292 322.641-200.477 322.264-198.977 321.884-197.514 321.039-194.264 320-191.078 318.324-188.164 315.7-183.604 313.372-178.901 311.234-174.102 309.539-170.298 308.288-166.242 306.188-162.683 301.695-155.071 299.328-146.683 296.9-138.358 293.319-126.084 290.622-113.565 287.527-101.16 281.377-76.505 277.225-51.583 274.84-26.312 274.094-18.403 274.34-10.305 271.324-2.714 271.175-2.339 271.197-1.511 271.33-1.467 273.088-.883 272.274 .54 272.236 1.537 272.036 6.713 271.817 11.894 271.388 17.055 270.083 32.76 270.507 48.487 270.918 64.197 271.454 84.726 272.249 105.252 273.229 125.765 273.622 133.987 272.798 142.32 275.057 150.423 275.523 152.096 276.231 153.779 276.115 155.792 274.418 154.803 272.747 154.162 271.496 153.049 261.256 143.931 250.579 135.219 243.188 123.373 242.519 122.301 241.647 121.353 240.836 120.373 235.03 113.357 229.54 106.064 225.552 97.882 218.873 84.182 211.228 70.956 205.39 56.844 201.195 46.704 195.951 37.027 192.04 26.762 187.139 13.899 184.186 .6 182.744-13.096 182.034-19.836 180.571-26.484 179.884-33.258 179.335-38.678 179.106-44.189 177.524-49.485 178.002-42.261 178.499-35.039 179.293-27.849 179.899-22.363 181.225-16.944 181.63-11.45 182.688 2.886 185.803 16.794 191.378 29.935 199.521 49.128 207.449 68.444 217.463 86.8 221.716 94.597 224.964 102.915 230.2 110.214 233.751 115.164 237.798 119.761 241.142 124.812 248.274 135.588 257.847 143.917 267.294 152.442 269.765 154.672 272.796 156.07 275.235 158.374 271.671 156.965 267.982 156.806 264.26 156.652 260.178 156.484 256.106 156.062 252.032 155.725 235.161 154.328 219.732 148.29 204.72 140.949 195.138 136.262 187.118 129.491 179.475 122.149 167.027 110.193 158.467 95.729 152.274 79.856 144.931 61.037 141.216 41.371 139.687 21.243 137.733-4.467 138.903-30.158 139.887-55.847 140.352-67.998 141.157-80.148 143.077-92.18 143.828-96.888 143.185-101.62 143.552-106.337 143.726-108.566 144.414-109.161 146.48-108.407 150.083-107.091 153.909-106.739 157.637-105.964 163.208-104.805 168.881-105.119 174.301-106.301 177.679-107.038 181.494-107.553 184.003-111 186.336-114.204 189.299-116.987 192.194-119.735 197.379-124.657 201.746-130.169 205.284-136.381 211.404-147.124 219.567-156.249 227.987-165.214 237.868-175.734 247.531-186.454 256.907-197.443 269.234-211.891 282.226-225.744 295.662-239.184 309.047-252.572 325.402-260.367 343.339-265.386 346.33-266.223 348.914-266.416 350.339-262.827 350.826-261.599 351.926-260.625 352.685-259.494 360.601-247.701 371.162-238.869 383.439-231.944 388.804-228.917 394.79-227.172 399.995-223.787 402.264-222.312 404.748-221.115 407.246-220.053 417.514-215.687 428.304-213.25 439.342-212.002 451.47-210.631 463.668-210.485 475.81-211.628 502.304-214.122 527.99-221.043 553.991-226.25 566.638-228.782 579.247-231.612 592.094-233.013 612.138-235.198 632.194-234.958 652.232-232.896 667.239-231.352 682.129-229.076 696.768-225.33 708.029-222.448 719.009-218.676 729.887-214.639 738.638-211.392 747.327-207.982 755.543-203.423 768.28-196.353 780.304-188.211 792.171-179.81 798.097-175.614 804.345-171.872 809.841-167.067 810.966-166.084 811.426-165.594 809.977-164.51 799.879-156.957 793.456-146.194 786.302-136.237 779.011-126.088 773.639-114.693 768.255-103.331 761.481-89.032 754.908-74.639 749.414-59.847 737.441-27.614 723.632 3.779 706.852 33.753 689.184 65.314 668.883 95.086 642.797 120.508 637.068 126.092 630.399 130.617 624.923 136.489 622.937 138.618 621.42 140.595 621.152 143.91 620.431 152.827 621.441 161.498 623.379 170.126 626.365 183.415 635.2 193.038 644.082 202.554 647.557 206.277 651.407 209.663 655.798 212.962 643.606 217.272 632.013 221.645 621.072 227.738 609.251 234.321 597.027 240.218 586.321 248.596 576.032 256.647 564.463 262.994 555.06 272.222 553.779 273.479 552.132 274.367 550.633 275.395 548.826 276.634 547.264 278.138 545.662 279.624 540.533 284.382 536.321 290.038 530.838 294.457 526.584 297.885 522.726 301.733 519.819 306.446 516.953 311.092 513.552 315.362 510.243 319.694 503.061 329.095 496.256 338.75 491.817 349.803 490.001 354.326 487.828 358.754 487.2 363.721 486.988 365.403 486.512 367.197 483.988 367.429 469.053 368.806 454.091 369.619 439.097 369.811 428.78 369.943 418.672 368.369 408.556 366.404 399.695 364.683 390.945 363.071 382.959 358.478 374.613 353.678 365.804 349.599 358.169 343.692 339.309 329.097 324.525 310.855 312.392 290.496 306.675 280.903 303.098 270.253 299.076 259.82 292.884 243.757 289.776 227.018 286.618 210.25 286.149 207.763 286.398 205.172 285.791 202.674 283.722 194.151 284.351 185.317 282.87 176.741 282.011 171.77 284.491 166.507 281.436 161.772 281.377 161.68 281.606 161.401 281.817 160.976 282.165 161.674 282.413 162.139 282.633 162.618 286.909 171.959 291.729 181.095 297.634 189.42 309.876 206.679 322.567 223.62 337.59 238.696 341.902 243.023 346.629 247.028 349.659 252.77 352.88 258.873 354.553 265.39 356.654 271.79 358.958 278.807 361.7 285.619 365.531 291.872 369.691 298.663 374.454 305.086 378.969 311.659 379.488 312.415 379.903 313.37 382.027 313.488 368.631 295.839 358.443 277.308 354.045 255.76 377.465 279.821 402.883 301.162 434.459 313.872 429.977 311.57 426.257 308.058 421.703 305.835 412.88 301.528 404.497 296.49 396.486 290.795 382.79 281.059 370.653 269.462 358.925 257.618 340.406 238.917 322.083 219.996 306.737 198.359 298.341 186.52 291.075 174.146 283.866 161.445 285.411 161.377 286.453 161.984 287.358 162.68 290.814 165.335 294.81 166.785 298.913 167.987 306.833 170.308 314.768 172.579 322.698 174.864 346.58 181.748 370.366 188.936 394.892 193.391 407.651 195.709 420.379 198.223 433.176 200.323 440.263 201.486 447.489 201.36 454.644 201.926 472.844 203.363 490.986 205.563 509.271 205.866 518.723 206.023 528.174 206.368 537.623 205.94 548.967 205.426 560.204 203.476 571.579 203.359 572.588 203.348 573.591 203.315 574.469 202.745 575.003 202.398 575.068 201.873 574.842 201.312 574.691 200.939 574.38 200.732 573.993 200.84 569.033 202.225 563.903 201.37 558.868 202.029 549.228 203.29 539.532 204.064 529.799 204.22 504.489 204.627 479.345 202.166 454.188 199.875 444.517 198.995 434.762 198.999 425.219 196.829 421.55 195.995 417.811 195.469 413.743 194.738 417.051 192.662 420.434 192.427 423.633 191.56 439.549 187.246 455.294 182.335 470.606 176.23 478.326 173.152 486.353 170.618 493.617 166.595 501.54 162.207 510.044 159.506 518.448 156.457 523.963 154.457 529.48 152.517 534.304 149.024 529.672 150.691 525.226 152.817 520.546 154.37 513.256 156.788 505.654 158.606 498.917 162.268 489.39 167.448 479.175 170.887 469.211 174.901 456.626 179.971 443.641 184.005 430.571 187.76 424.583 189.481 418.357 190.426 412.59 192.952 411.4 193.473 410.231 194.339 408.73 193.96 399.302 191.579 389.566 190.659 380.164 188.247 347.39 179.84 314.608 171.429 282.558 159.853 282.927 159.322 283.139 158.928 283.432 158.609 294.986 146.021 305.12 132.212 316.895 119.805 324.212 112.095 331.066 103.943 338.423 96.272 351.002 83.156 363.829 70.279 376.506 57.256 378.069 55.651 379.483 54.366 381.948 53.945 386.408 53.183 390.758 52.212 395.365 52.125 400.176 52.034 404.963 52.402 409.772 52.307 422.309 52.059 434.651 49.361 447.209 49.53 447.837 49.539 448.478 49.429 449.095 49.292 455.723 47.812 462.403 46.522 468.963 44.783 484.533 40.655 500.112 36.533 515.602 32.133 538.075 25.75 559.541 16.425 581.398 8.271 603.962-.147 625.246-11.519 646.926-21.951 647.586-22.268 648.405-22.443 648.896-23.557 641.859-20.278 635.08-17.129 628.309-13.962 609.06-4.956 589.888 4.189 569.755 11.185 554.121 16.618 538.944 23.398 523.098 28.179 502.746 34.318 482.188 39.768 461.493 44.693 453.613 46.568 445.82 48.549 437.631 47.974 436.921 47.924 436.189 48.127 435.473 48.247 423.973 50.169 412.374 50.456 400.747 50.438 395.246 50.429 389.678 49.932 384.337 51.857 383.47 52.17 382.62 52.436 381.416 52.033M157.802 651.806C162.705 655.531 168.095 657.111 173.655 658.135 176.993 658.751 178.095 658.041 178.977 654.702 180.552 648.741 181.901 642.721 183.365 636.731 185.194 629.246 186.773 621.687 188.95 614.304 192.021 603.892 193.605 593.219 195.361 582.56 196.792 573.87 198.556 565.232 199.846 556.523 202.512 538.526 204.702 520.425 202.927 502.232 201.005 482.529 196.755 463.325 187.774 445.436 186.171 442.243 183.629 439.737 181.638 436.657 182.839 435.866 184.137 435.953 185.293 435.589 194.446 432.709 203.948 431.435 213.375 430.169 222.985 428.879 232.502 426.939 242.232 426.317 252.462 425.664 262.634 424.14 272.838 423.056 291.112 421.113 309.406 420.027 327.779 421.663 338.453 422.613 349.143 423.376 359.773 424.782 363.548 425.281 367.218 426.345 371.069 426.519 373.152 426.613 374.752 428.37 376.523 429.464 384.656 434.489 391.91 440.736 399.779 446.137 429.381 466.456 461.28 482.119 494.81 494.904 515.152 502.66 535.376 510.81 555.508 519.16 569.163 524.824 582.691 530.861 596.649 535.835 608.459 540.043 619.8 545.411 631.105 550.838 637.979 554.138 645.043 556.959 652.36 559.255 658.663 561.234 664.699 564.053 671.051 566.01 676.651 567.737 682.455 568.167 688.14 569.314 688.907 569.468 689.653 569.32 689.978 568.521 690.372 567.548 689.786 566.967 688.96 566.614 687.55 566.011 686.122 565.449 684.696 564.868 684.998 564.155 685.987 564.746 686.199 563.726 672.965 560.632 660.494 555.256 647.69 550.862 635.229 546.585 623.343 540.878 611.138 535.961 598.166 530.736 585.04 525.848 572.423 519.813 564.965 516.246 557.439 512.799 549.839 509.622 538.17 504.744 526.476 499.89 514.567 495.58 499.542 490.141 484.586 484.52 470.147 477.604 445.852 465.967 422.616 452.405 399.605 438.484 387.881 431.392 376.891 423.097 365.371 415.653 342.137 400.639 323.467 380.616 304.719 360.696 299.942 355.62 296.081 349.693 291.638 344.288 274.902 323.93 258.267 303.499 240.516 283.984 227.124 269.26 213.848 254.41 199.881 240.255 189.309 229.539 177.8 219.681 164.578 212.137 162.06 210.7 159.683 209.061 157.292 207.053 160.673 207.053 163.849 206.753 166.952 207.104 181.12 208.71 195.084 207.309 208.941 204.439 225.689 200.97 241.725 195.648 255.785 185.506 263.564 179.894 270.558 173.442 276.474 165.857 277.056 165.11 277.431 164.09 278.658 163.784 277.757 175.964 279.44 187.927 280.934 199.85 282.849 215.132 285.052 230.474 289.81 245.142 295.43 262.466 301.825 279.558 310.402 295.725 314.048 302.596 318.965 308.53 323.731 314.602 332.805 326.159 342.968 336.633 354.418 345.832 362.608 352.411 371.92 357.213 381.086 362.223 394.855 369.75 410.005 372.192 425.311 373.479 443.819 375.035 462.345 373.835 480.843 372.643 482.804 372.517 484.69 372.307 486.687 373.154 488.587 373.96 492.136 370.59 492.47 367.758 494.455 350.947 503.114 337.321 513.021 324.26 515.875 320.498 518.828 316.775 521.302 312.767 524.828 307.052 528.989 301.965 534.24 297.799 539.259 293.818 543.01 288.608 547.6 284.212 553.98 278.103 561.133 272.946 568.126 267.61 579.748 258.742 591.58 250.148 603.775 242.077 607.554 239.576 611.573 237.416 615.748 235.632 621.934 232.99 628.024 230.212 633.588 226.362 639.107 222.543 645.735 221.123 651.691 218.233 654.466 216.887 657.364 215.788 660.097 214.366 662.545 213.093 661.998 212.706 660.212 210.848 655.224 205.655 648.923 202.12 643.898 196.897 638.272 191.047 635.926 183.8 632.954 176.755 629.351 168.214 626.279 159.48 624.785 150.266 624.044 145.691 625.222 142.208 628.843 138.927 634.982 133.365 641.59 128.405 647.891 123.06 656.2 116.011 662.963 107.559 669.811 99.203 686.122 79.301 699.037 57.151 711.835 34.942 724.381 13.173 734.548-9.755 744.359-32.836 747.555-40.352 749.959-48.201 753.013-55.781 759.018-70.686 764.614-85.771 771.987-100.091 772.236-100.576 772.506-101.055 772.698-101.563 777.058-113.105 783.124-123.858 789.94-133.979 796.786-144.143 803.671-154.563 813.69-162.171 815.239-163.347 816.879-164.43 818.592-165.339 819.033-165.573 819.291-165.653 819.326-166.125 819.364-166.636 819.176-167.044 818.651-167.136 814.418-167.879 811.884-171.335 808.871-173.763 804.608-177.199 799.907-179.93 795.46-183.021 785.849-189.702 775.956-196.015 765.895-202.003 752.085-210.225 738.16-218.314 723.027-223.966 698.579-233.097 673.41-238.274 647.208-239.052 628.169-239.618 609.221-239.27 590.314-237.28 576.476-235.823 562.902-232.663 549.277-229.925 536.901-227.438 524.674-224.146 512.247-221.983 494.641-218.919 477.09-215.096 459.038-215.552 441.17-216.003 423.665-218.712 407.247-225.879 397.303-230.219 387.152-234.44 378.282-240.904 367.428-248.812 357.724-257.936 350.006-269.021 348.699-270.899 347.256-271.668 344.778-271.078 320.67-265.338 301.278-252.005 284.755-234.031 272.823-221.051 260.603-208.312 249.174-194.902 237.552-181.266 224.453-168.901 213.591-154.703 205.267-143.824 196.433-133.339 188.392-122.245 185.71-118.544 182.285-115.505 179.036-112.363 177.259-110.645 174.366-110.378 171.829-110.431 165.201-110.568 158.572-110.977 152.012-111.941 148.714-112.425 145.375-111.331 142.054-112.749 140.574-113.381 140.314-111.457 140.218-110.136 139.79-104.251 139.589-98.332 138.811-92.492 137.635-83.667 136.711-74.83 136.299-65.942 135.933-58.047 135.756-50.143 135.392-42.247 134.705-27.357 134.66-12.464 134.837 2.437 135.125 26.751 138.383 50.574 145.849 73.793 150.367 87.843 156.574 101.065 165.447 112.807 183.875 137.193 208.255 152.409 238.256 158.453 245.113 159.834 252.117 160.214 259.077 160.781 264.044 161.185 268.896 162.57 274.703 161.997 270.514 166.918 266.803 171.111 262.57 174.895 251.295 184.973 238.073 190.981 223.444 194.237 210.595 197.096 197.856 200.512 184.633 201.356 172.063 202.158 159.856 199.734 147.604 197.489 139.008 195.914 131.677 191.693 124.309 187.331 110.942 179.418 97.411 171.782 83.928 164.068 76.662 159.912 68.894 156.662 61.887 152.197 51.989 145.891 41.397 140.807 31.648 134.28 25.072 129.878 17.523 127.219 10.973 122.714-.583 114.766-11.779 106.408-21.282 96.008-23.677 93.387-25.575 90.381-27.182 87.201-28.205 85.174-29.229 83.143-30.357 81.174-32.432 77.548-32.104 75.897-28.39 73.711-19.609 68.543-12.18 61.837-5.842 53.926 2.654 43.322 10.394 32.206 14.667 19.146 19.797 3.471 22.342-12.457 17.983-28.825 17.447-30.836 17.309-32.967 16.319-34.839 15.522-36.344 14.49-37.171 13.527-34.986 13.011-33.815 12.027-33.461 11.026-33.089 6.608-31.447 2.159-29.883-2.246-28.207-3.562-27.706-4.287-27.758-5.036-29.18-11.68-41.815-21.584-51.55-32.605-60.372-40.648-66.811-48.962-72.74-58.202-77.36-64.244-80.38-70.741-82.107-77.016-84.462-77.876-84.785-78.344-84.615-78.863-83.969-84.89-76.482-89.447-68.308-92.178-58.971-94.208-52.033-96.919-45.291-98.763-38.262-101.908-26.268-101.573-14.15-100.566-1.974-100.131 3.279-99.067 8.39-96.962 13.363-101.694 13.695-106.144 13.07-110.554 14.103-112.72 14.611-114.608 15.658-116.646 16.395-117.968 16.874-117.786 18.009-117.551 19.158-115.841 27.495-111.523 34.641-106.264 40.977-91.773 58.435-73.165 69.872-51.657 76.811-47.06 78.294-42.371 78.39-37.663 78.505-36.41 78.536-35.722 78.644-35.251 79.971-32.157 88.705-26.79 95.865-20.207 102.336-7.084 115.234 7.642 125.71 23.811 134.555 35.412 140.9 46.988 147.427 58.068 154.734 61.09 156.727 64.379 158.32 67.567 160.057 90.684 172.655 113.628 185.564 136.147 199.205 147.559 206.118 159.188 212.775 169.89 220.731 181.238 229.168 192.486 237.787 201.985 248.48 216.045 264.306 230.913 279.435 244.589 295.578 262.448 316.658 280.863 337.27 298.216 358.779 307.813 370.675 318.511 381.552 329.064 392.587 335.544 399.363 343.081 404.974 349.237 412.063 352.092 415.351 355.789 417.77 359.275 420.766 355.884 420.277 352.426 420.056 349.112 419.248 337.566 416.436 326.099 413.32 314.811 409.579 303.442 405.809 292.223 401.607 280.921 397.659 264.014 391.754 247.695 384.491 231.299 377.397 217.012 371.216 204.043 362.563 190.573 354.858 181.897 349.895 173.721 344.166 165.626 338.291 160.271 334.404 154.49 331.074 149.647 326.521 142.374 319.684 134.188 313.883 127.379 306.505 124.003 302.848 119.85 299.908 116.469 296.254 112.861 292.354 109.115 288.789 104.299 286.434 103.234 285.913 102.702 284.925 103.338 283.596 102.436 284.632 102.293 285.616 103.229 286.617 103.539 286.949 103.826 287.317 104.187 287.583 114.402 295.087 122.247 305.113 131.674 313.432 141.722 322.299 151.462 331.481 162.656 339.093 173.924 346.756 185.222 354.313 196.85 361.423 217.447 374.016 239.236 384.075 261.599 393.043 274.153 398.078 286.915 402.534 299.581 407.252 306.205 409.72 313.045 411.61 319.784 413.772 321.473 414.313 323.149 414.896 324.831 415.46 324.793 415.785 324.755 416.109 324.718 416.433 318.323 416.433 311.927 416.374 305.533 416.445 290.244 416.616 275.082 418.425 259.924 420.195 245.853 421.839 231.781 423.414 217.652 424.535 210.965 425.066 204.343 426.397 197.777 427.869 192.197 429.12 186.646 430.653 181.052 431.629 176.845 432.364 172.603 431.989 168.606 428.335 160.495 420.919 150.88 415.405 141.324 409.944 122.452 399.159 101.778 393.237 81.129 387.065 61.992 381.344 42.553 376.56 23.818 369.548 13.95 365.854 4.521 361.122-4.78 356.179-6.429 355.304-7.482 355.526-8.931 356.539-15.101 360.851-17.492 367.411-19.555 374.132-21.532 380.578-22.6 387.211-22.575 393.964-22.569 395.824-23.336 396.275-24.932 396.404-40.334 397.653-54.858 402.366-68.858 408.489-83.096 414.716-95.802 423.458-106.988 434.355-115.205 442.359-123.165 450.599-129.721 460.03-133.858 465.981-137.851 472.082-140.95 478.667-143.127 483.292-142.505 483.901-137.367 483.984-132.643 484.06-127.979 485.018-123.377 485.996-109.685 488.905-96.844 494.126-84.504 501.033-89.819 505.679-94.219 511.29-99.052 516.5-105.538 523.493-111.959 530.646-116.772 538.912-123.401 550.295-128.982 562.188-133.444 574.648-140.178 593.454-144.736 612.793-147.859 632.432-150.285 647.689-150.731 663.16-150.592 678.645-150.481 691.118-150.008 703.623-147.955 715.841-145.876 728.217-143.452 740.673-138.88 752.506-136.327 759.113-135.142 766.187-131.982 772.584-131.46 773.642-131.016 774.739-130.506 775.803-129.582 777.734-129.444 780.469-127.201 781.2-124.154 782.193-120.972 783.263-117.621 782.452-116.651 782.217-115.658 782.078-114.688 781.841-101.128 778.538-86.93 778.124-73.756 773.167-57.527 767.061-41.307 760.895-26.381 751.857-19.467 747.671-12.272 743.925-5.531 739.485 8.553 730.209 21.794 719.872 32.429 706.596 34.002 704.632 34.861 704.595 36.712 706.415 47.344 716.87 56.799 728.421 67.29 739 71.909 743.656 77.366 747.29 82.446 751.384 83.409 752.159 83.897 751.838 84.741 751.306 100.435 741.425 113.469 728.68 125.029 714.285 138.823 697.108 149.069 678.054 155.832 657.103 156.386 655.385 157.088 653.715 157.802 651.806"/>
</g>
</g>
</svg>
