<svg xmlns="http://www.w3.org/2000/svg" xmlns:xlink="http://www.w3.org/1999/xlink" version="1.1" width="1117.09pt" height="872.727pt" viewBox="0 0 1117.09 872.727">
<defs>
<clipPath id="clip_1">
<path transform="matrix(1,0,0,-1,0,872.727)" d="M0 872.727H1117.091V0H0Z"/>
</clipPath>
</defs>
<g id="layer_1" data-name="Layer">
<g clip-path="url(#clip_1)">
<path transform="matrix(1,0,0,-1,938.1658,617.4298)" d="M0 0C-7.186-8.252-15.922-13.544-27.607-14.254-31.63-14.128-35.423-12.763-37.499-8.28-38.195-6.774-38.332-5.369-37.617-3.858-36.458-1.405-35.623 1.256-34.144 3.492-31.641 7.275-27.75 8.617-23.308 8.494-15.274 8.271-7.783 6.111-.779 2.197 .148 1.679 1.069 1.228 0 0M146.709-72.871C141.211-62.219 132.242-55.047 122.626-48.533 118.465-45.715 114.138-43.104 108.682-43.179 112.752-40.962 114.327-37.36 115.239-33.366 115.584-31.858 115.446-30.434 113.488-30.001 110.397-29.317 107.35-28.236 104.227-27.943 94.976-27.075 85.741-26.914 76.645-29.51 68.252-31.905 59.765-34.012 53.332-40.528 52.007-41.869 50.425-41.689 48.775-41.248 46.251-40.575 43.793-39.517 41.102-39.699 37.558-39.939 34.036-39.958 30.536-39.19 28.998-38.852 27.493-39.306 25.969-39.575 24.463-39.842 22.974-40.723 21.275-40.126 21.605-39.015 21.885-38.064 22.169-37.113 24.532-29.216 25.407-21.52 19.912-14.335 18.691-12.739 15.868-11.56 16.792-9.176 17.57-7.169 19.504-5.592 20.999-3.888 21.652-3.143 22.467-2.534 23.241-1.902 31.683 5.005 40.515 11.418 49.904 16.923 60.713 23.259 72.263 26.717 85.031 23.513 87.624 22.862 89.327 21.902 90.272 19.314 93.065 11.665 100.246 7.436 109.026 9.715 116.172 11.57 122.949 14.26 129.725 17.041 130.964 17.55 132.465 18.319 130.81 20.012 124.621 26.346 118.114 32.275 109.534 35.23 100.58 38.314 91.813 32.859 87.618 26.14 86.563 24.451 86.083 24.464 84.627 24.768 79.558 25.827 74.487 26.657 69.259 25.723 61.304 24.302 54.035 21.246 47.095 17.179 43.244 14.922 39.711 12.225 36.071 9.692 28.425 4.37 20.477-.664 14.905-8.679 11.629-5.118 8.094-1.995 4.333 .868 3.586 1.436 3.308 1.947 3.849 2.887 6.534 7.548 7.622 12.53 7.632 17.966 7.644 25.027 6.252 31.491 1.43 36.783-.956 39.402-2.36 41.683 .609 44.726 1.2 45.331 1.192 46.532 1.794 47.11 2.727 48.006 2.888 50.371 4.851 49.483 7.278 48.386 9.826 48.453 12.313 48.225 20.946 47.434 29.38 48.274 37.013 52.782 43.276 56.481 49.02 60.925 54.278 65.971 56.364 67.973 56.346 68.945 53.944 70.501 52.578 71.385 51.551 72.517 50.894 73.894 49.226 77.384 46.904 80.14 42.989 81.419 50.507 94.095 49.187 107.559 47.466 121.068 47.312 122.276 46.834 123.232 45.471 123.202 43.376 123.154 41.304 123.813 39.272 123.702 27.508 123.062 17.559 118.394 9.382 109.879 7.865 108.299 7.114 105.227 4.915 105.298 2.904 105.363 .932 107.263-1.018 108.419-5.093 110.835-6.037 110.487-7.83 106.106-12.051 95.793-14.526 85.028-13.468 73.963-12.575 64.62-8.779 56.284-.005 51.288 .956 50.741 1.35 50.285 .73 49.18-.495 46.998-1.594 44.745-2.742 42.528-3.605 42.72-3.909 43.446-4.405 43.937-12.899 52.344-22.888 58.263-34.413 61.353-48.736 65.193-63.19 68.358-78.192 66.502-84.563 65.714-90.95 64.909-96.714 61.707-97.808 61.099-98.791 60.483-99.426 58.801-97.969 59.763-97.137 60.654-95.942 61.135-90.77 63.219-85.344 64.208-79.868 64.854-67.17 66.352-54.789 64.575-42.374 61.709-29.37 58.707-17.401 53.901-7.761 44.56-2.075 39.05 3.515 33.324 5.22 24.907 5.803 22.034 5.376 19.354 5.581 16.602 5.884 12.541 4.628 8.915 3.088 5.308 2.335 3.545 1.612 2.943-.498 4.12-7.901 8.25-15.881 10.441-24.447 10.347-29.401 10.292-33.251 8.241-35.914 4.195-37.246 2.172-38.136-.163-39.074-2.421-40.794-6.56-39.63-10.512-36.055-13.252-32.148-16.244-27.761-16.548-23.112-15.74-13.093-14-5.109-8.835 1.379-1.2 2.269-.153 2.716-.239 3.699-.991 9.442-5.383 14.448-10.52 18.895-16.178 20.444-18.148 21.544-20.5 21.922-23.088 23.224-31.995 20.127-39.841 15.822-47.281 12.787-52.526 8.203-56.539 3.638-60.389-1.589-64.796-6.314-70.008-13.294-71.944-18.876-73.493-24.347-75.455-29.952-76.909-39.824-79.469-50.001-80.112-60.075-81.426-64.863-82.051-69.048-81.296-72.875-78.426-73.317-78.095-74.13-77.891-73.525-77.047-72.002-76.626-71.169-75.416-70.398-74.198-67.778-70.059-67.3-65.553-68.427-60.879-68.731-59.618-68.616-58.918-67.468-58.193-64.096-56.061-61.692-52.922-59.633-49.631-53.404-39.676-52.04-28.794-54.398-17.452-56.005-9.723-58.589-2.271-62.503 4.626-63.63 6.611-63.85 9.886-66.518 10.086-68.886 10.265-71.433 9.138-73.623 7.789-74.164 7.456-74.696 7.11-75.238 6.779-76.806 5.822-77.971 3.436-79.259 3.413-80.746 3.386-82.208 5.462-83.788 6.453-94.501 13.168-106.303 15.648-118.808 15.394-120.253 15.364-120.961 14.771-121.19 13.37-121.844 9.357-122.978 5.381-122.917 1.305-122.771-8.534-123.868-18.523-119.957-27.979-119.462-29.176-119.986-29.272-120.974-29.445-125.266-30.194-129.398-31.311-133.241-33.581-135.203-34.741-135.617-35.48-134.441-37.504-129.709-45.65-123.102-51.877-115.01-56.488-101.283-64.308-86.955-66.955-71.827-60.687-70.569-60.165-70.093-60.023-69.718-61.692-68.417-67.491-70.185-72.381-73.676-76.875-74.778-77.225-75.744-76.937-76.754-76.414-79.321-75.083-81.952-73.875-84.536-72.575-95.387-67.12-107.057-63.95-118.628-60.575-125.92-58.448-133.367-56.898-140.684-54.766-150.7-51.848-161.165-50.867-171.493-49.289-190.329-46.412-209.272-45.811-228.241-45.393-237.324-45.193-246.367-46.233-255.303-47.792-259.444-48.514-263.616-47.239-267.695-48.53-269.759-49.183-271.919-49.532-274.038-50.009-280.449-51.451-284.897-49.755-287.694-44.69-285.002-44.986-282.441-45.34-279.77-45.036-272.871-44.253-266.353-42.169-259.903-39.796-254.602-37.846-249.593-35.37-245.402-31.431-244.019-30.132-243.984-29.103-245.159-27.742-246.712-25.944-248.442-24.436-250.915-23.84-248.956-21.69-246.996-19.788-245.327-17.66-239.886-10.722-236.339-2.802-233.744 5.561-232.257 10.354-231.44 15.241-232.351 20.289-232.537 21.318-232.565 22.327-233.925 22.418-235.727 22.54-237.532 22.766-239.333 22.746-248.198 22.643-257.067 22.494-265.142 17.162-264.714 19.945-264.146 22.352-264.776 24.78-264.911 25.303-264.644 25.637-264.385 26.008-260.326 31.826-256.121 37.554-250.415 41.879-239.736 49.974-227.498 54.557-214.48 57.174-211.209 57.832-207.839 58.061-204.501 58.301-202.673 58.433-200.965 57.873-201.072 55.537-201.301 50.558-198.467 47.146-194.789 44.737-183.217 37.156-171.498 38.296-160.359 44.529-156.786 46.529-156.869 47.343-159.947 49.949-160.5 50.418-160.993 50.958-161.531 51.445-167.124 56.505-172.773 61.473-179.34 65.302-187.398 70-196.814 70.007-201.593 60.032-201.96 59.266-202.544 59.316-203.171 59.323-212.904 59.434-222.231 57.329-231.27 53.932-243.258 49.427-253.994 43.104-261.738 32.482-262.905 30.881-263.715 28.914-265.632 27.441-269.139 38.125-275.163 46.825-283.207 54.195-284.821 55.674-286.175 57.063-288.661 55.795-297.132 51.474-303.92 45.405-308.54 37.042-312.008 30.764-314.06 24.068-314.177 16.844-314.211 14.713-314.743 13.799-317.255 14.622-320.019 15.527-323.005 15.344-325.888 14.698-327.074 14.433-328.162 14.021-328.464 12.619-329.378 8.367-330.508 4.178-330.121-.279-329.764-4.383-328.852-8.376-327.845-12.593-329.999-11.812-331.742-11.131-333.393-10.129-335.174-9.047-336.755-10.118-336.445-12.173-336.163-14.045-335.714-15.93-335.05-17.7-330.924-28.689-322.919-36.041-312.613-41.074-305.861-44.372-298.79-46.102-291.278-43.957-290.327-43.685-289.75-44.049-289.457-44.626-288.11-47.274-285.876-49.111-283.388-51.174-286.133-51.822-288.483-52.449-290.863-52.925-306.151-55.983-321.542-58.503-336.558-62.896-346.99-65.948-357.41-69.001-368.09-71.309-381.519-74.211-394.941-77.282-408.338-80.386-416.755-82.336-425.025-84.685-433.292-87.098-443.099-89.962-452.895-92.844-463.758-95.042-459.827-92.317-456.978-89.548-454.539-86.448-450.292-81.047-445.694-75.923-441.754-70.275-441.028-69.235-440.363-67.947-438.614-68.084-429.814-68.773-421.489-67.09-413.523-63.237-402.735-58.019-393.99-51.166-391.426-38.54-390.108-32.049-391.321-30.498-398.105-31.212-398.285-31.231-398.472-31.241-398.643-31.295-400.763-31.973-401.107-30.971-400.891-29.114-399.684-18.698-400.576-8.437-403.702 1.559-405.68 7.881-408.354 13.928-412.331 19.315-413.66 21.117-415.245 21.501-417.33 20.707-432.767 14.831-443.083 3.759-449.205-11.278-451.481-16.868-453.236-22.723-454.353-28.708-454.622-30.151-454.964-30.494-456.398-29.575-460.069-27.223-464.218-26.854-468.459-27.25-470.757-27.465-472.024-28.818-471.698-31.085-471.158-34.847-471.09-38.746-469.675-42.306-464.866-54.399-456.519-62.964-444.104-67.328-441.455-68.259-441.481-68.399-443.371-70.572-446.456-74.118-449.49-77.713-452.45-81.365-457.818-87.988-462.949-94.879-471.896-97.047-474.797-97.75-477.744-98.284-480.611-99.105-498.266-104.165-516.183-107.98-534.502-109.371-543.971-110.09-553.408-112.462-562.99-110.742-570.546-109.386-578.206-110.04-585.814-109.465-597.867-108.555-609.932-107.989-621.851-105.818-629.404-104.443-636.842-102.679-644.13-99.553-641.162-96.048-638.257-92.794-636.042-89.024-631.944-82.05-628.969-74.735-629.444-66.44-629.668-62.531-629.742-62.559-625.72-62.272-624.458-62.182-623.209-61.915-621.951-61.756-608.101-59.997-596.938-53.178-587.2-43.525-580.547-36.931-577.567-28.509-575.063-19.858-573.95-16.013-573.602-12.01-574.322-7.987-574.914-4.675-575.605-4.068-579.015-4.132-581.624-4.18-584.182-4.606-586.842-5.508-582.22 4.282-583.235 12.64-584.191 18.1-584.647 20.706-585.951 21.407-588.552 21.129-591.178 20.85-593.497 20.038-595.68 18.704-597.651 17.5-599.549 16.178-601.538 14.87-601.78 15.29-601.987 15.587-602.129 15.913-602.345 16.409-602.529 16.921-602.704 17.434-607.207 30.638-614.842 41.617-625.812 50.293-632.465 55.555-639.899 59.428-647.471 63.127-649.172 63.958-650.019 63.641-651.171 62.391-654.081 59.234-656.304 55.58-658.846 52.159-664.237 44.902-667.115 36.792-667.7 27.723-667.977 23.423-668.145 19.139-667.858 14.208-671.824 17.12-676.446 16.775-680.065 19.206-681.017 19.846-682.266 19.833-682.442 18.523-682.867 15.377-684.959 12.92-685.655 9.891-687.081 3.685-686.367-2.41-684.794-8.429-684.308-10.288-684.817-11.029-686.416-11.677-688.872-12.673-690.985-14.265-693.13-15.806-694.817-17.018-695.076-18.256-694.317-20.23-692.1-25.998-688.497-30.886-684.889-35.781-678.312-44.701-670.075-51.879-660.302-56.916-652.025-61.182-643.012-63.426-633.512-62.263-631.221-61.982-630.435-62.446-630.453-65.029-630.53-76.359-634.84-85.976-641.853-94.568-646.531-100.3-646.005-99.485-652.066-96.262-667.882-87.852-681.934-77.001-694.577-64.347-699.324-59.594-704.136-54.832-708.292-49.579-716.012-39.824-722.579-29.227-729.487-18.888-731.802-15.423-734.117-11.827-734.605-7.572-735.481 .078-736.702 7.689-736.478 15.459-736.299 21.717-736.708 27.993-736.885 34.26-737.253 47.303-735.103 60.132-733.484 72.996-733.003 76.813-731.686 80.525-730.618 84.827-729.63 80.3-728.008 76.695-725.964 73.249-722.607 67.588-718.382 62.68-713.508 58.274-712.294 57.176-711.569 57.818-710.724 58.499-699.266 67.74-694.492 79.719-696.21 94.286-696.36 95.563-696.692 96.232-694.945 95.691-689.535 94.015-684.592 95.612-679.77 98.001-678.438 98.661-677.722 99.728-678.079 101.07-679.259 105.51-680.08 110.067-682.231 114.211-687.218 123.816-695.127 129.448-705.667 131.462-707.539 131.82-709.557 131.339-711.432 132.344-708.283 136.912-704.478 140.614-699.682 143.204-687.678 149.687-675.82 152.891-663.231 143.938-656.311 139.017-653.459 132.682-653.043 124.693-652.971 123.314-653.17 121.82-651.405 121.201-649.742 137.785-659.462 146.033-673.644 151.166-670.574 152.738-667.912 153.97-665.768 155.967-656.87 164.254-653.621 181.135-658.752 192.145-660.152 195.151-660.331 195.187-662.865 193.239-663.507 192.746-664.238 192.369-664.924 191.932-678.658 183.171-686.234 165.525-679.233 151.722-682.26 151.13-685.319 150.724-688.268 149.92-698.296 147.183-706.828 142.197-712.386 133.063-713.234 131.669-714.228 131.349-715.735 131.449-720.89 131.792-725.767 130.412-729.935 127.61-736.756 123.025-742.051 116.988-745.02 109.136-747.404 102.828-749.42 96.452-749.005 89.587-748.945 88.592-749.295 87.067-747.793 86.935-742.185 86.446-736.531 85.692-730.855 88.422-739.946 57.565-739.121 26.483-736.531-5.429-741.417 3.931-746.698 12.282-750.482 21.434-752.381 26.028-754.19 30.741-756.576 35.028-759.871 40.949-762.394 47.072-764.58 53.434-765.951 57.423-766.135 61.626-767.382 65.614-771.594 79.077-773.95 92.965-776.747 106.751-778.679 116.277-779.425 125.964-780.495 135.603-781.523 144.869-782.467 154.147-783.231 163.438-783.677 168.87-783.337 174.315-782.8 179.755-782.059 187.262-782.435 194.836-781.974 202.343-781.204 214.87-777.798 227.011-775.613 239.334-774.361 246.397-770.141 250.679-763.687 253.232-760.385 254.538-757.009 255.642-753.541 256.185-749.668 256.79-745.704 257.399-741.101 256.265-749.602 251.497-754.932 245.007-758.385 236.433-764.455 221.366-762.799 207.613-753.298 194.614-752.721 193.825-752.208 193.46-751.287 193.933-745.24 197.044-738.858 199.731-735.678 206.429-735.013 207.831-734.526 208.145-733.013 206.864-720.72 196.459-706.825 191.213-690.527 194.44-684.353 195.663-684.321 195.737-683.932 202.033-683.291 212.402-685.622 221.982-691.681 230.544-693.9 233.679-696.504 236.47-699.431 238.926-701.164 240.38-701.683 241.319-699.652 243.146-695.154 247.192-692.51 252.47-690.874 258.238-689.3 263.787-690.541 266.52-695.602 269.334-703.568 273.763-712 275.448-721.017 273.755-728.513 272.348-734.774 268.752-738.521 262.059-740.162 259.129-741.363 258.276-744.918 258.28-754.761 258.293-764.321 256.446-772.456 249.205-771.832 250.764-771.443 251.953-770.894 253.063-769.169 256.555-767.083 259.9-765.676 263.513-760.474 276.874-752.69 288.848-745.435 301.065-736.863 315.499-727.52 329.477-717.723 343.125-715.042 346.86-712.561 350.778-708.775 353.671-704.088 357.253-699.238 360.589-694.129 363.488-690.298 365.662-686.431 368.127-681.892 368.484-677.826 368.804-673.609 369.244-669.666 368.513-665.528 367.746-661.231 366.355-658.579 362.39-663.974 360.616-670.373 356.182-673.171 352.3-681.594 340.615-682.936 327.634-680.285 313.886-680.003 312.422-679.3 312.268-678.226 312.706-675.025 314.011-671.269 314.191-669.042 317.476-668.537 316.521-668.169 315.797-667.777 315.085-662.552 305.599-655.482 298.283-644.629 295.422-643.549 295.138-642.519 294.432-641.582 295.938-639.574 299.168-637.335 302.254-635.284 305.459-631.047 312.083-629.479 319.274-631.207 327.001-631.529 328.441-631.196 328.679-629.979 328.887-626.048 329.558-622.282 330.709-618.639 332.408-617.041 333.153-616.946 333.777-617.497 335.216-619.699 340.96-622.749 346.271-626.986 350.641-634.18 358.06-642.474 363.536-653.518 362.725-655.469 362.582-657.044 363.49-658.354 364.747-661.888 368.139-666.2 369.858-670.933 370.308-679.265 371.101-687.079 369.543-694.432 365.202-698.189 362.984-701.862 360.614-705.991 357.814-705.675 358.745-705.658 359.027-705.51 359.195-699.697 365.807-694.241 372.784-687.966 378.924-678.005 388.671-669.599 399.67-661.262 410.709-656.704 416.745-654.415 424.063-652.9 431.5-651.983 436.007-651.405 440.59-650.339 445.059-648.399 453.185-647.028 461.357-647.048 469.738-647.072 479.495-648.297 489.139-649.695 498.765-652.874 520.643-661.353 540.144-676.514 556.378-689.259 570.026-704.811 578.846-723.431 581.828-729.379 582.781-735.517 583.483-741.324 582.262-751.19 580.187-760.578 576.552-768.915 570.545-772.187 568.187-775.036 565.412-777.984 562.725-788.344 553.285-794.148 542.044-792.609 527.517-791.562 517.634-788.673 508.853-780.993 502.101-774.223 496.149-766.507 495.193-758.477 498.514-750.845 501.672-743.25 511.541-748.207 522.264-749.631 525.343-751.77 527.828-754.231 530.048-752.985 527.552-751.446 525.245-750.275 522.764-747.601 517.1-747.567 511.59-751.601 506.387-754.548 502.585-758.388 500.819-762.934 499.137-769.496 496.71-780.084 502.198-783.325 506.876-787.736 513.245-790.559 520.138-790.911 528.045-791.274 536.206-790.523 543.982-785.725 550.928-776.354 564.494-763.723 573.633-748.055 578.581-745.572 579.365-743.034 580.026-740.408 580.415-734.556 581.28-728.864 579.806-723.102 579.505-720.088 579.348-716.969 578.816-714.132 577.514-708.694 575.019-703.141 572.73-697.886 569.891-685.695 563.307-676.405 553.441-668.834 542.101-659.777 528.535-654.648 513.417-652.536 497.181-650.561 481.998-649.501 466.949-652.291 451.695-654.203 441.243-655.807 430.797-659.896 420.901-661.246 417.634-662.457 414.262-664.463 411.384-670.284 403.029-677.32 395.642-683.761 387.778-684.671 386.668-685.477 385.473-686.331 384.318L-686.938 384.969C-685.458 395.451-685.318 405.869-688.118 416.211-688.78 418.657-688.99 420.943-686.827 423.326-683.417 427.084-681.15 431.597-680.071 436.747-677.164 450.609-679.851 462.468-691.534 471.47-692.924 472.542-693.916 472.74-695.251 471.423-698.394 468.323-700.729 464.773-701.751 460.52-702.45 460.358-702.708 460.809-703.022 461.095-709.865 467.322-717.632 470.492-727.129 469.44-730.227 469.097-730.99 467.622-731.431 465.297-733.317 455.354-733.398 445.627-727.626 436.731-727.85 436.538-727.964 436.356-728.108 436.329-732.737 435.443-736.814 433.459-740.46 430.455-741.252 429.802-741.662 429.245-741.146 428.496-739.661 426.345-738.934 423.801-737.06 421.809-732.631 417.099-727.191 413.912-721.22 412.058-710.191 408.633-699.687 409.381-690.96 418.154-690.599 418.517-690.239 419.037-689.534 418.577-689.485 417.99-689.494 417.346-689.37 416.73-687.565 407.782-686.918 398.766-687.906 389.675-688.318 385.88-688.952 382.103-691.602 379.077-694.296 376.003-696.806 372.763-699.499 369.705-711.587 355.977-722.54 341.403-732.483 326.07-740.333 313.966-747.794 301.625-755.192 289.234-760.694 280.019-765.717 270.651-769.868 260.782-770.073 260.293-770.058 259.413-771.208 259.581-771.073 263.993-770.917 268.415-771.213 272.845-771.512 277.32-773.125 281.467-774.073 285.776-774.28 286.716-774.047 287.115-773.309 287.761-769.766 290.857-766.256 293.977-763.403 297.795-755.393 308.515-752.192 329.056-763.229 341.967-765.334 344.43-766.49 344.81-769.083 342.73-771.336 340.924-773.669 339.121-775.053 336.461-775.619 335.373-776.139 335.389-777.121 336.149-784.2 341.626-792.147 345.022-801.035 346.43-803.528 346.825-804.461 346.766-805.814 344.188-810.177 335.873-813.024 327.366-812.044 317.866-811.898 316.45-812.237 315.911-813.879 315.717-818.753 315.14-823.461 313.841-827.716 311.249-828.803 310.586-829.348 310.029-828.743 308.439-825.8 300.695-820.349 294.937-814.215 289.756-810.555 286.664-805.889 285.491-801.479 283.809-792.333 280.32-783.726 281.564-775.239 285.972-775.089 285.624-774.802 285.172-774.694 284.681-772.862 276.319-771.776 267.898-772.622 259.309-772.872 256.775-773.197 254.351-774.482 252.04-775.483 250.239-776.167 248.203-776.661 246.19-779.779 233.491-782.57 220.704-784.01 207.709-784.556 202.785-786.509 198.926-789.472 195.288-795.267 188.173-801.384 181.345-807.844 174.827-817.378 165.208-828.277 157.809-841.48 154.146-843.809 153.5-845.685 153.59-847.556 155.61-853.959 162.523-862.071 163.949-870.814 161.684-880.231 159.243-887.2 153.007-893.389 145.827-894.702 144.303-894.032 143.078-892.391 142.416-890.095 141.491-887.563 140.813-885.21 141.384-882.26 142.1-881.845 141.039-881.718 138.48-881.65 137.123-882.141 135.077-880.391 134.332-878.587 133.566-876.7 132.825-874.645 132.873-865.841 133.082-857.839 135.463-851.165 141.482-848.778 143.634-846.561 145.964-846.055 149.262-845.807 150.879-845.42 151.762-843.634 151.724-842.847 151.707-842.047 152.075-841.261 152.297-822.538 157.599-808.475 169.643-796.008 183.865-792.114 188.308-788.452 192.983-784.735 198.578-785.014 193.248-785.252 188.724-785.488 184.201-786.107 172.309-785.885 160.426-785.521 148.526-785.319 141.916-788.43 136.252-792.45 130.666-793.351 133.652-794.109 136.275-795.972 138.279-801.639 144.379-809.09 145.778-816.863 145.415-827.715 144.908-836.266 139.503-843.514 131.733-844.4 130.783-844.151 130.067-843.606 129.095-842.148 126.496-840.231 124.391-837.507 123.059-841.288 117.472-844.43 111.668-846.774 105.495-850.695 95.165-852.559 84.494-850.269 73.52-848.777 66.368-849.878 66.531-842.66 66.644-841.934 66.655-841.206 66.585-840.482 66.62-831.18 67.064-823.526 71.471-816.303 76.812-810.065 81.425-805.891 87.913-801.231 93.932-800.02 95.497-799.019 95.577-797.34 94.917-793.214 93.297-789.346 94.488-785.601 96.366-785.262 96.536-785.042 96.735-784.956 97.143-783.997 101.648-782.001 105.901-781.709 110.568-781.442 114.86-781.364 119.15-783.585 123.036-785.351 126.126-787.76 128.631-791.152 130.279-787.43 134.735-785.369 139.971-784.018 145.56-783.005 136.626-782.381 127.741-781.341 118.906-779.779 105.633-776.42 92.673-774.109 79.527-773.069 73.609-770.743 68.001-769.595 62.146-768.378 55.939-766.483 50.003-763.978 44.28-759.806 34.749-755.302 25.363-750.95 15.911-750.563 15.069-749.914 14.275-750.079 13.08-755.375 14.781-760.607 14.832-765.774 13.955-773.893 12.576-781.591 9.983-787.964 4.463-791.807 1.135-795.777-2.264-798.341-6.593-799.997-9.388-801.785-10.463-804.716-11.023-808.149-11.678-811.303-13.191-812.807-16.733-815.146-22.245-815.836-28.073-815.979-33.996-816.013-35.43-815.303-35.815-814.091-35.272-811.039-33.905-807.863-32.73-805.006-31.026-798.432-27.103-795.574-19.576-798.575-13.6-799.952-10.858-799.32-8.895-797.625-7.03-794.576-3.677-791.618-.148-788.115 2.68-778.314 10.593-767.062 14.028-754.409 12.618-750.942 12.231-748.588 10.809-747.104 7.526-739.379-9.556-729.903-25.599-718.341-40.386-716.724-42.453-717.245-43.889-719.861-45.552-727.387-50.334-735.375-50.531-743.635-47.987-745.317-47.469-746.332-46.423-746.323-44.453-746.315-42.53-747.031-40.753-748.032-39.098-754.335-28.689-765.881-24.319-777.691-27.803-779.307-28.28-779.42-29.105-778.883-30.413-775.699-38.18-772.133-45.645-765.252-51.017-760.769-54.518-753.362-54.287-748.82-50.68H-748.809C-747.828-50.68-746.67-49.592-745.916-48.746-745.509-48.761-745.081-48.872-744.597-49.016-739.655-50.487-734.716-51.851-729.408-50.764-724.232-49.705-719.542-47.902-715.743-43.934-701.541-61.794-685.989-78.386-665.646-90.795-675.229-92.06-683.148-95.486-689.962-101.062-693.229-103.737-696.717-104.558-700.682-104.798-708.428-105.268-715.709-102.823-723.166-101.467-724.649-101.198-724.471-100.249-724.203-99.209-723.633-96.994-723.377-94.774-723.668-92.468-724.386-86.766-726.141-81.342-727.742-75.855-729.013-71.496-731.514-67.649-732.577-63.222-732.982-61.532-734.118-62.064-735.055-62.824-737.895-65.13-740.632-67.559-741.649-71.257-742.013-72.58-742.324-72.832-743.624-72.111-753.543-66.61-764.097-64.833-775.36-66.409-777.857-66.758-778.08-67.678-777.995-69.616-777.614-78.374-775.353-86.567-770.647-94.001-769.991-95.037-769.762-95.663-770.875-96.4-775.175-99.247-778.294-103.217-781.237-107.353-781.766-108.096-782.562-108.973-781.45-109.666-778.848-111.286-776.608-113.418-773.692-114.614-763.445-118.817-753.022-119.063-742.507-116.056-735.729-114.117-730.159-110.288-726.814-103.904-725.857-102.078-725.121-102.005-723.286-102.503-714.759-104.817-706.267-107.657-697.067-106.054-700.397-108.56-702.611-112.034-705.442-114.931-712.469-122.12-716.981-130.471-717.409-140.676-717.761-149.077-714.18-155.591-707.561-160.641-704.84-162.716-701.585-163.474-698.487-163.978-693.987-164.71-689.318-164.2-685.769-160.749-680.787-155.903-678.965-149.894-680.361-143.108-680.837-140.798-682.473-138.828-684.359-137.396-685.527-136.509-687.129-135.693-688.934-137.262-683.947-138.57-681.878-141.876-681.502-146.602-681.098-151.688-685.067-159.814-689.208-161.316-698.315-164.621-708.402-160.809-713.145-152.269-715.77-147.541-716.563-142.66-715.655-137.355-714.726-131.929-713.283-126.608-709.84-122.33-703.931-114.987-697.638-108.042-689.785-102.504-682.528-97.386-674.682-94.012-666.236-91.742-665.282-91.485-664.277-91.562-663.369-92.181-657.886-95.913-651.989-98.787-645.935-101.533-635.817-106.122-625.363-109.24-614.376-110.265-600.828-111.53-587.23-112.25-573.654-113.187-559.902-114.136-546.292-113.585-532.629-112.191-528.27-111.746-523.891-110.509-519.396-111.725-513.234-113.392-507.453-115.926-501.9-118.999-499.632-120.255-497.538-121.827-495.198-123.365-506.715-129.166-510.677-134.041-513.978-145.053-517.051-155.307-515.836-165.733-513.454-175.953-512.337-180.743-511.902-180.662-507.407-178.516-506.183-177.933-504.763-177.63-503.72-176.826-501.366-175.012-500.799-176.119-500.18-178.395-496.867-190.566-491.322-201.591-482.844-211.022-477.891-216.533-471.834-220.731-465.877-225.043-463.2-226.981-462.286-226.956-460.326-224.351-457.433-220.506-454.322-216.783-451.827-212.689-443.992-199.83-437.998-186.473-442.619-170.709-441.804-170.746-440.999-170.821-440.195-170.813-432.644-170.737-430.012-167.243-432.459-160.167-434.508-154.242-438.367-149.686-444.264-146.516-440.46-144.742-437.446-142.315-434.324-140.035-431.542-138.004-431.448-137.29-433.896-134.745-438.504-129.954-444.091-126.645-450.138-124.065-462.278-118.885-474.791-115.949-487.644-120.737-492.475-122.537-496.074-122.911-499.611-118.846-500.451-117.88-501.911-117.437-503.112-116.804-507.903-114.28-512.757-111.895-518.158-110.618-517.498-109.768-516.747-109.734-516.033-109.651-502.907-108.133-490.351-104.144-477.564-101.087-455.985-95.929-434.77-89.319-412.954-85.113-403.615-83.313-394.398-80.89-385.105-78.842-382.934-78.363-380.813-77.733-378.425-78.334-369.91-80.478-362.103-84.596-353.503-86.862-356.278-89.208-359.069-91.191-361.469-93.656-365.045-97.329-366.076-102.127-367.749-106.721-372.192-118.921-371.955-130.999-367.779-143.173-367.039-145.332-366.098-145.484-364.182-144.66-359.887-142.813-356.531-139.836-353.441-135.925-350.835-143.48-346.698-149.684-341.792-155.308-333.949-164.298-323.859-168.934-311.958-169.575-305.953-169.899-305.717-169.937-303.705-164.42-298.876-151.178-297.065-137.711-301.637-123.95-301.807-123.439-302.51-122.565-301.518-122.39-299.481-122.032-297.749-120.619-295.298-121.655-287.886-124.786-281.189-128.959-274.94-133.993-265.547-141.559-259.586-151.224-256.673-162.854-262.428-167.426-265.154-180.104-262.387-188.819-260.825-193.738-257.354-197.369-254.353-201.305-251.582-204.939-251.466-204.842-249.608-200.451-249.256-199.62-248.807-198.831-248.42-198.015-245.585-192.036-244.117-185.676-243.894-179.124-243.659-172.185-246.531-166.51-252.6-162.983-254.509-161.874-255.705-160.718-256.305-158.717-260.887-143.428-271.588-133.32-284.8-125.469-288.367-123.35-292.328-121.896-296.329-120.035-294.694-118.965-293.803-117.192-292.105-116.832-290.639-116.521-290.63-115.728-290.728-114.715-290.963-112.289-291.042-109.819-291.57-107.453-294.501-94.308-302.059-85.009-315.022-80.839-327.512-76.821-339.529-78.599-350.893-85.062-351.486-85.399-351.923-85.99-352.834-85.669-360.862-82.84-368.91-80.068-377.393-77.126-368.894-74.848-360.862-72.667-352.814-70.544-338.898-66.873-325.075-62.766-311.02-59.733-299.381-57.222-287.874-54.037-275.922-52.784-268.301-51.984-260.758-50.283-253.049-49.858-247.701-49.564-242.346-49.165-237.036-48.485-231.16-47.734-225.231-48.141-219.424-48.312-212.576-48.514-205.706-49.463-198.8-49.405-196.562-49.387-194.594-50.068-192.672-51.255-185.135-55.912-179.089-62.108-173.888-69.184-173.079-70.285-171.48-71.445-172.117-72.833-172.694-74.093-174.454-73.157-175.678-73.333-195.481-76.168-213.345-82.694-225.808-99.56-230.064-105.32-232.796-111.83-235.067-118.547-235.961-121.191-236.056-124.45-234.449-126.334-232.646-128.447-229.652-129.725-226.401-129.629-223.815-129.553-221.31-129.214-218.676-128.257-222.25-136.461-221.067-144.32-218.766-152.201-218.412-153.414-217.677-153.677-216.626-153.829-211.365-154.591-206.139-155.163-201.55-151.463-201.088-153.891-200.772-155.949-200.299-157.971-197.081-171.736-189.293-182.688-179.118-192.138-173.993-196.899-168.852-201.634-161.822-203.569-160.221-204.01-159.243-204.054-158.786-202.2-157.755-198.02-155.557-194.341-153.504-190.634-148.094-180.864-144.179-170.619-142.676-159.486-142.02-154.625-141.839-149.782-142.49-144.228-139.22-146.99-135.9-147.606-132.37-147.376-130.826-147.276-129.462-146.881-129.223-145.04-128.908-142.612-128.511-140.196-129.041-137.728-129.668-134.812-130.191-131.873-130.709-128.936-130.867-128.04-131.46-126.906-129.752-126.709-121.737-125.785-115.493-121.872-110.546-115.566-109.579-114.333-109.531-113.483-110.014-112.184-112.841-104.58-117.286-97.964-122.718-92.06-134.634-79.11-149.278-72.119-167.106-72.619-169.193-72.677-170.378-72.043-171.426-70.261-173.27-67.128-175.748-64.461-178.152-61.724-181.993-57.351-186.531-53.843-191.893-50.127-187.771-50.577-184.465-50.977-181.151-51.291-174.294-51.94-167.452-52.624-160.637-53.712-149.799-55.441-139.292-58.545-128.606-60.888-123.899-61.92-119.477-63.819-114.796-64.913-104.206-67.387-94.087-71.298-83.913-75.071-77.57-77.424-71.976-81.152-65.991-84.143-54.834-89.718-44.06-95.99-37.623-107.447-36.069-110.212-34.188-112.79-32.566-115.52-29.327-120.968-26.288-126.263-26.926-133.227-27.458-139.026-28.109-144.546-30.044-150.142-32.558-157.417-44.025-159.68-49.223-157.05-53.395-154.94-55.914-151.605-57.938-147.681-60.858-142.019-59.94-133.611-55.188-129.374-53.965-128.284-52.534-127.572-51.148-126.711-51.751-126.621-52.297-126.626-52.787-126.794-58.088-128.612-61.964-134.293-61.513-140.537-60.966-148.086-56.739-156.117-48.545-159.079-42.071-161.419-32.645-158.598-29.804-153.075-28.164-149.885-26.618-146.673-26.036-142.958-25.476-139.387-25.303-135.835-25.344-131.833-22.636-133.168-20.314-134.342-17.965-135.459-16.576-136.12-16.379-136.923-16.889-138.438-19.677-146.734-15.391-158.023-7.984-162.826-1.253-167.19 6.251-167.124 13.794-167.058 14.847-167.049 14.932-166.347 14.746-165.547 12.993-158.016 10.998-150.548 5.99-144.407 1.902-139.395-2.813-134.673-9.742-134.897-14.37-135.047-18.25-133.981-22.201-131.964-24.106-130.991-25.701-130.495-25.242-127.676-24.937-125.801-26.072-123.821-27.037-122.061-28.737-118.961-30.385-115.827-32.225-112.811-38.122-103.143-44.411-93.843-54.875-88.357-57.462-87.001-60.136-85.686-62.607-83.618-59.601-83.179-56.924-82.595-54.221-82.426-38.228-81.426-22.922-77.565-8.12-71.555-7.04-71.117-5.963-70.551-5.055-69.83 .922-65.085 6.811-60.192 12.06-54.672 15.005-51.575 18.025-48.277 19.377-43.984 19.854-42.469 21.137-42.326 22.369-42.071 30.808-40.321 39.115-42.037 47.92-42.909 45.268-46.113 42.866-49.023 41.019-52.339 35.755-61.79 33.28-72.05 32.314-82.701 31.739-89.033 31.661-95.419 32.418-101.746 33.93-114.377 40.99-124.281 48.579-133.889 49.638-135.229 50.76-134.913 52.151-134.236 56.946-131.905 60-127.978 62.416-123.267 63.669-124.977 65.143-126.172 66.711-127.266 73.498-132.001 80.835-135.64 88.416-138.965 99.105-143.655 110.062-147.292 121.573-149.128 127.304-150.042 133.09-150.568 138.937-150.293 141.812-150.158 142.654-149.729 142.906-146.866 143.622-138.72 144.401-130.574 144.001-122.379 143.359-109.27 141.836-96.452 131.494-86.255 133.392-86.3 134.886-86.022 136.29-85.454 140.464-83.765 143.363-80.405 146.439-77.353 147.552-76.248 147.623-74.643 146.709-72.871"/>
</g>
</g>
</svg>
